<svg width="193" height="58" viewBox="0 0 193 58" fill="none" xmlns="http://www.w3.org/2000/svg">
<g clip-path="url(#clip0_48_285)">
<mask id="mask0_48_285" style="mask-type:luminance" maskUnits="userSpaceOnUse" x="0" y="0" width="193" height="58">
<path d="M193 0H0V58H193V0Z" fill="white"/>
</mask>
<g mask="url(#mask0_48_285)">
<path d="M177.631 0.000188499H15.378C14.7866 0.000188499 14.2022 0.000188499 13.6124 0.00308849C13.1186 0.00598848 12.6287 0.014413 12.1302 0.0215034C11.0472 0.032961 9.96677 0.118619 8.89825 0.277732C7.83122 0.440309 6.79763 0.746814 5.83241 1.18688C4.86838 1.63067 3.98752 2.20732 3.22178 2.89593C2.45202 3.5826 1.81036 4.3763 1.32149 5.2465C0.831262 6.11498 0.491339 7.04563 0.313457 8.00631C0.133884 8.96578 0.0372542 9.93631 0.0244347 10.9092C0.00946742 11.3538 0.00788683 11.7998 0 12.2444V45.76C0.00788683 46.2102 0.00946742 46.6464 0.0244347 47.0968C0.0372581 48.0696 0.133888 49.0401 0.313457 49.9995C0.490848 50.9607 0.830791 51.8919 1.32149 52.7607C1.81014 53.6281 2.45189 54.4186 3.22178 55.1015C3.98461 55.7931 4.86605 56.3702 5.83241 56.8106C6.79762 57.2518 7.83111 57.5601 8.89825 57.7252C9.96695 57.8831 11.0473 57.9688 12.1302 57.9816C12.6287 57.9914 13.1186 57.9971 13.6124 57.9971C14.2022 58 14.7866 58 15.378 58H177.631C178.21 58 178.799 58 179.379 57.9971C179.87 57.9971 180.374 57.9914 180.866 57.9816C181.947 57.9694 183.025 57.8837 184.092 57.7252C185.162 57.559 186.199 57.2507 187.169 56.8106C188.135 56.3699 189.015 55.7929 189.778 55.1015C190.545 54.4159 191.189 53.626 191.683 52.7607C192.17 51.8913 192.507 50.9602 192.682 49.9995C192.862 49.04 192.962 48.0697 192.981 47.0968C192.987 46.6464 192.987 46.2102 192.987 45.76C193 45.2332 193 44.7093 193 44.174V13.8275C193 13.2965 193 12.7698 192.987 12.2444C192.987 11.7998 192.987 11.3538 192.981 10.9091C192.962 9.93617 192.862 8.96585 192.682 8.00625C192.507 7.04612 192.17 6.11555 191.683 5.24645C190.688 3.50221 189.109 2.08242 187.169 1.18675C186.199 0.747759 185.162 0.441336 184.092 0.277602C183.025 0.117787 181.947 0.0320997 180.866 0.0213004C180.374 0.0142245 179.87 0.00572748 179.379 0.00289999C178.799 0 178.21 0.000188499 177.631 0.000188499Z" fill="black"/>
<path d="M13.2646 56.9971C12.7711 56.9971 12.2895 56.9914 11.7999 56.9814C10.7855 56.9695 9.77357 56.8897 8.77228 56.7426C7.83863 56.5973 6.93418 56.327 6.08875 55.9405C5.25107 55.5573 4.48704 55.0548 3.82593 54.4522C3.15525 53.8568 2.59688 53.1662 2.17294 52.4078C1.74433 51.6445 1.44771 50.8263 1.2934 49.9817C1.12677 49.0742 1.03661 48.1566 1.02371 47.2367C1.01344 46.928 1 45.9 1 45.9V12.0813C1 12.0813 1.01432 11.0691 1.02379 10.7717C1.03615 9.85337 1.12578 8.93717 1.29191 8.03108C1.4465 7.1842 1.74336 6.36364 2.17219 5.59781C2.59457 4.83993 3.14985 4.14881 3.81649 3.55124C4.48238 2.948 5.24885 2.4429 6.08795 2.05437C6.93144 1.66917 7.83419 1.40074 8.76595 1.25806C9.77053 1.10956 10.786 1.02927 11.8038 1.01788L13.2654 1H179.727L181.206 1.01859C182.214 1.02942 183.221 1.10899 184.216 1.25662C185.157 1.40109 186.069 1.6714 186.922 2.05866C188.603 2.84166 189.971 4.08044 190.834 5.60138C191.256 6.36193 191.548 7.17579 191.701 8.01536C191.869 8.92888 191.963 9.85228 191.983 10.7782C191.987 11.1928 191.987 11.6381 191.987 12.0813C192 12.6303 192 13.1529 192 13.6797V44.3188C192 44.8506 192 45.3696 191.987 45.8928C191.987 46.3689 191.987 46.805 191.981 47.2539C191.962 48.1633 191.869 49.0702 191.704 49.9674C191.553 50.818 191.258 51.6426 190.829 52.4122C190.402 53.1624 189.847 53.847 189.184 54.4408C188.523 55.0466 187.757 55.552 186.918 55.9377C186.067 56.3272 185.156 56.5985 184.216 56.7426C183.215 56.8904 182.203 56.9703 181.188 56.9814C180.714 56.9914 180.217 56.9971 179.735 56.9971L177.979 57L13.2646 56.9971Z" fill="white"/>
<path d="M46.2461 28.8396C46.2623 27.581 46.5956 26.347 47.2151 25.2524C47.8345 24.1578 48.7199 23.2381 49.789 22.5789C49.1098 21.6061 48.2139 20.8055 47.1723 20.2407C46.1307 19.676 44.9722 19.3626 43.7887 19.3254C41.2641 19.0597 38.8167 20.8406 37.5302 20.8406C36.2189 20.8406 34.2381 19.3518 32.1052 19.3958C30.7256 19.4405 29.381 19.8429 28.2026 20.5638C27.0241 21.2846 26.0519 22.2993 25.3807 23.5091C22.4732 28.558 24.6419 35.9782 27.4271 40.0594C28.8206 42.0578 30.4492 44.2901 32.5802 44.2109C34.6655 44.1242 35.4443 42.8773 37.9614 42.8773C40.4552 42.8773 41.1858 44.2109 43.3601 44.1606C45.5977 44.1242 47.0075 42.1533 48.3521 40.1359C49.3534 38.712 50.1238 37.1382 50.6349 35.4729C49.3349 34.9214 48.2255 33.9983 47.4451 32.8188C46.6646 31.6392 46.2477 30.2553 46.2461 28.8396Z" fill="black"/>
<path d="M42.1396 16.6414C43.3597 15.1724 43.9607 13.2843 43.8152 11.3781C41.9512 11.5744 40.2295 12.4679 38.9929 13.8805C38.3884 14.5706 37.9253 15.3734 37.6303 16.2431C37.3353 17.1128 37.214 18.0323 37.2735 18.949C38.2058 18.9586 39.1281 18.7559 39.971 18.3562C40.8139 17.9565 41.5554 17.3702 42.1396 16.6414Z" fill="black"/>
<path d="M71.2639 39.3525H64.4208L62.7774 44.2194H59.8789L66.3606 26.2133H69.372L75.8538 44.2194H72.9059L71.2639 39.3525ZM65.1295 37.1067H70.5538L67.8798 29.2082H67.8049L65.1295 37.1067Z" fill="black"/>
<path d="M89.852 37.6561C89.852 41.7357 87.675 44.3567 84.3896 44.3567C83.5574 44.4004 82.7297 44.2081 82.0014 43.8019C81.2731 43.3957 80.6735 42.792 80.2713 42.0599H80.2092V48.5623H77.5225V31.0915H80.1231V33.275H80.1725C80.5931 32.5464 81.2028 31.9458 81.9367 31.5371C82.6706 31.1285 83.5012 30.927 84.3402 30.9541C87.6623 30.9541 89.852 33.5879 89.852 37.6561ZM87.0905 37.6561C87.0905 34.9983 85.721 33.2509 83.6315 33.2509C81.5787 33.2509 80.1979 35.0351 80.1979 37.6561C80.1979 40.3012 81.5787 42.0727 83.6315 42.0727C85.721 42.0727 87.0905 40.3381 87.0905 37.6561Z" fill="black"/>
<path d="M104.259 37.6561C104.259 41.7357 102.081 44.3567 98.7959 44.3567C97.9637 44.4004 97.136 44.2081 96.4076 43.8019C95.6793 43.3957 95.0797 42.792 94.6776 42.0599H94.6154V48.5623H91.9287V31.0915H94.5293V33.275H94.5787C94.9994 32.5464 95.6091 31.9458 96.3429 31.5371C97.0768 31.1285 97.9074 30.927 98.7464 30.9541C102.069 30.9541 104.259 33.5879 104.259 37.6561ZM101.497 37.6561C101.497 34.9983 100.127 33.2509 98.0377 33.2509C95.9849 33.2509 94.6042 35.0351 94.6042 37.6561C94.6042 40.3012 95.9849 42.0727 98.0377 42.0727C100.127 42.0727 101.497 40.3381 101.497 37.6561Z" fill="black"/>
<path d="M113.779 39.2024C113.978 40.988 115.707 42.1604 118.071 42.1604C120.335 42.1604 121.964 40.9879 121.964 39.3779C121.964 37.9803 120.982 37.1435 118.655 36.57L116.328 36.0078C113.032 35.2092 111.501 33.6629 111.501 31.1537C111.501 28.047 114.201 25.913 118.032 25.913C121.827 25.913 124.428 28.047 124.516 31.1537H121.803C121.641 29.3568 120.16 28.2721 117.996 28.2721C115.831 28.2721 114.35 29.3695 114.35 30.9668C114.35 32.2398 115.296 32.9889 117.61 33.5623L119.588 34.0494C123.272 34.9231 124.801 36.4071 124.801 39.0409C124.801 42.4096 122.127 44.5194 117.871 44.5194C113.89 44.5194 111.202 42.4591 111.028 39.2023L113.779 39.2024Z" fill="black"/>
<path d="M130.603 27.9847V31.0915H133.092V33.2254H130.603V40.4627C130.603 41.587 131.101 42.1109 132.195 42.1109C132.491 42.1057 132.786 42.0849 133.079 42.0486V44.1698C132.587 44.2619 132.087 44.3037 131.587 44.2944C128.937 44.2944 127.903 43.2961 127.903 40.7501V33.2254H126V31.0915H127.903V27.9847H130.603Z" fill="black"/>
<path d="M134.531 37.6561C134.531 33.5256 136.957 30.9301 140.739 30.9301C144.534 30.9301 146.948 33.5256 146.948 37.6561C146.948 41.798 144.547 44.3822 140.739 44.3822C136.933 44.3822 134.531 41.798 134.531 37.6561ZM144.211 37.6561C144.211 34.8227 142.916 33.1504 140.739 33.1504C138.562 33.1504 137.267 34.8354 137.267 37.6561C137.267 40.5009 138.562 42.1605 140.739 42.1605C142.916 42.1605 144.211 40.5009 144.211 37.6561Z" fill="black"/>
<path d="M149.164 31.0915H151.727V33.3259H151.789C151.962 32.6281 152.37 32.0113 152.943 31.5794C153.516 31.1475 154.221 30.9267 154.937 30.9541C155.247 30.953 155.555 30.9867 155.858 31.0546V33.5751C155.467 33.4553 155.059 33.4003 154.65 33.4123C154.26 33.3964 153.871 33.4655 153.51 33.6146C153.149 33.7638 152.824 33.9896 152.558 34.2766C152.292 34.5635 152.091 34.9048 151.969 35.277C151.847 35.6491 151.807 36.0434 151.851 36.4327V44.2193H149.164V31.0915Z" fill="black"/>
<path d="M168.245 40.3636C167.883 42.7467 165.569 44.3822 162.609 44.3822C158.801 44.3822 156.438 41.8235 156.438 37.7184C156.438 33.6007 158.814 30.9301 162.496 30.9301C166.117 30.9301 168.394 33.4251 168.394 37.4055V38.3287H159.15V38.4916C159.107 38.9747 159.167 39.4614 159.327 39.9194C159.486 40.3774 159.74 40.7961 160.073 41.1478C160.407 41.4995 160.81 41.7761 161.258 41.9592C161.706 42.1424 162.187 42.2279 162.671 42.21C163.306 42.2697 163.943 42.1222 164.487 41.7895C165.032 41.4568 165.455 40.9567 165.693 40.3635L168.245 40.3636ZM159.162 36.4454H165.706C165.73 36.011 165.665 35.5763 165.513 35.1685C165.362 34.7608 165.128 34.3888 164.827 34.0759C164.525 33.7631 164.163 33.5161 163.761 33.3505C163.36 33.1849 162.929 33.1042 162.496 33.1135C162.058 33.1109 161.624 33.1952 161.22 33.3616C160.815 33.528 160.447 33.7731 160.137 34.0829C159.827 34.3927 159.581 34.7609 159.414 35.1664C159.247 35.5719 159.161 36.0066 159.162 36.4454Z" fill="black"/>
<path d="M64.7946 12.6599C65.3579 12.6194 65.9231 12.7047 66.4495 12.9098C66.9759 13.1149 67.4504 13.4346 67.8387 13.8458C68.227 14.2571 68.5194 14.7497 68.6949 15.288C68.8704 15.8264 68.9246 16.3971 68.8536 16.959C68.8536 19.723 67.3642 21.3119 64.7946 21.3119H61.6787V12.6599H64.7946ZM63.0185 20.0883H64.645C65.0474 20.1124 65.4502 20.0462 65.824 19.8945C66.1978 19.7428 66.5331 19.5095 66.8056 19.2114C67.0782 18.9133 67.281 18.5581 67.3993 18.1715C67.5177 17.7849 67.5486 17.3767 67.4898 16.9766C67.5443 16.5781 67.5103 16.1724 67.3901 15.7886C67.2699 15.4049 67.0666 15.0525 66.7947 14.7568C66.5228 14.4611 66.1891 14.2294 65.8174 14.0783C65.4458 13.9271 65.0454 13.8603 64.645 13.8826H63.0185V20.0883Z" fill="black"/>
<path d="M70.3671 18.0443C70.3261 17.6152 70.3751 17.1823 70.5107 16.7733C70.6464 16.3643 70.8658 15.9882 71.1549 15.6692C71.4439 15.3503 71.7963 15.0954 72.1893 14.921C72.5823 14.7466 73.0073 14.6565 73.4371 14.6565C73.8669 14.6565 74.2919 14.7466 74.6849 14.921C75.0779 15.0954 75.4302 15.3503 75.7193 15.6692C76.0084 15.9882 76.2278 16.3643 76.3634 16.7733C76.4991 17.1823 76.548 17.6152 76.5071 18.0443C76.5488 18.4738 76.5005 18.9073 76.3651 19.317C76.2298 19.7266 76.0106 20.1034 75.7214 20.423C75.4323 20.7426 75.0797 20.998 74.6863 21.1727C74.2929 21.3475 73.8674 21.4378 73.4371 21.4378C73.0068 21.4378 72.5813 21.3475 72.1879 21.1727C71.7945 20.998 71.4419 20.7426 71.1527 20.423C70.8636 20.1034 70.6443 19.7266 70.509 19.317C70.3737 18.9073 70.3254 18.4738 70.3671 18.0443ZM75.1856 18.0443C75.1856 16.629 74.5517 15.8013 73.4392 15.8013C72.3224 15.8013 71.6942 16.629 71.6942 18.0443C71.6942 19.4709 72.3225 20.2922 73.4392 20.2922C74.5517 20.2922 75.1856 19.4652 75.1856 18.0443Z" fill="black"/>
<path d="M84.6688 21.3117H83.336L81.9905 16.5029H81.8889L80.5491 21.3117H79.229L77.4346 14.7825H78.7377L79.9039 19.7647H79.9999L81.3383 14.7825H82.5708L83.9092 19.7647H84.0109L85.1714 14.7825H86.4561L84.6688 21.3117Z" fill="black"/>
<path d="M87.9658 14.7825H89.2026V15.8197H89.2986C89.4615 15.4472 89.7361 15.1349 90.0844 14.9264C90.4326 14.7179 90.837 14.6235 91.2413 14.6565C91.558 14.6326 91.8761 14.6805 92.1719 14.7966C92.4677 14.9127 92.7336 15.0941 92.95 15.3274C93.1664 15.5606 93.3277 15.8397 93.422 16.1439C93.5162 16.4481 93.541 16.7698 93.4945 17.0849V21.3117H92.2098V17.4085C92.2098 16.3592 91.7552 15.8374 90.805 15.8374C90.59 15.8274 90.3753 15.8641 90.1757 15.945C89.9761 16.026 89.7963 16.1493 89.6487 16.3064C89.501 16.4636 89.389 16.6509 89.3203 16.8555C89.2516 17.0602 89.2278 17.2773 89.2506 17.492V21.3117H87.9658V14.7825Z" fill="black"/>
<path d="M95.541 12.2336H96.8258V21.3117H95.541V12.2336Z" fill="black"/>
<path d="M98.6121 18.0443C98.5712 17.6152 98.6202 17.1822 98.7559 16.7732C98.8916 16.3642 99.111 15.9881 99.4001 15.6691C99.6892 15.3502 100.042 15.0953 100.435 14.9209C100.828 14.7465 101.253 14.6564 101.683 14.6564C102.112 14.6564 102.537 14.7465 102.93 14.9209C103.323 15.0953 103.676 15.3502 103.965 15.6691C104.254 15.9881 104.473 16.3642 104.609 16.7732C104.745 17.1822 104.794 17.6152 104.753 18.0443C104.795 18.4738 104.746 18.9073 104.611 19.317C104.475 19.7267 104.256 20.1034 103.967 20.423C103.678 20.7426 103.325 20.998 102.932 21.1727C102.538 21.3475 102.113 21.4378 101.683 21.4378C101.252 21.4378 100.827 21.3475 100.433 21.1727C100.04 20.998 99.6872 20.7426 99.3981 20.423C99.1089 20.1034 98.8896 19.7267 98.7542 19.317C98.6189 18.9073 98.5705 18.4738 98.6121 18.0443ZM103.431 18.0443C103.431 16.629 102.797 15.8013 101.684 15.8013C100.568 15.8013 99.9393 16.629 99.9393 18.0443C99.9393 19.4709 100.568 20.2922 101.684 20.2922C102.797 20.2922 103.431 19.4652 103.431 18.0443Z" fill="black"/>
<path d="M106.105 19.4652C106.105 18.2899 106.978 17.6124 108.527 17.5161L110.29 17.4141V16.8506C110.29 16.161 109.836 15.7716 108.957 15.7716C108.24 15.7716 107.743 16.0357 107.601 16.4973H106.357C106.488 15.3758 107.54 14.6565 109.017 14.6565C110.649 14.6565 111.569 15.4714 111.569 16.8506V21.3117H110.332V20.3942H110.231C110.025 20.7233 109.735 20.9916 109.391 21.1717C109.048 21.3518 108.663 21.4373 108.275 21.4193C108.002 21.4478 107.726 21.4186 107.465 21.3335C107.203 21.2484 106.963 21.1093 106.758 20.9252C106.554 20.741 106.39 20.516 106.278 20.2646C106.165 20.0131 106.107 19.7408 106.105 19.4652ZM110.29 18.9073V18.3615L108.7 18.4634C107.804 18.5236 107.397 18.8294 107.397 19.4051C107.397 19.9927 107.906 20.3347 108.604 20.3347C108.809 20.3555 109.016 20.3347 109.213 20.2737C109.409 20.2127 109.592 20.1126 109.749 19.9794C109.906 19.8462 110.035 19.6827 110.128 19.4985C110.221 19.3143 110.276 19.1133 110.29 18.9073Z" fill="black"/>
<path d="M113.258 18.0443C113.258 15.9812 114.315 14.6742 115.96 14.6742C116.367 14.6554 116.771 14.7531 117.124 14.9559C117.478 15.1588 117.766 15.4584 117.956 15.8197H118.052V12.2336H119.337V21.3117H118.106V20.2801H118.004C117.8 20.639 117.501 20.9349 117.141 21.1357C116.78 21.3365 116.372 21.4345 115.96 21.4193C114.304 21.4194 113.258 20.1124 113.258 18.0443ZM114.585 18.0443C114.585 19.4291 115.236 20.2625 116.324 20.2625C117.407 20.2625 118.076 19.4171 118.076 18.05C118.076 16.6892 117.4 15.8318 116.324 15.8318C115.243 15.8318 114.585 16.6707 114.585 18.0443Z" fill="black"/>
<path d="M124.652 18.0443C124.611 17.6152 124.66 17.1823 124.796 16.7733C124.932 16.3643 125.151 15.9882 125.44 15.6692C125.729 15.3503 126.081 15.0954 126.474 14.921C126.867 14.7466 127.292 14.6565 127.722 14.6565C128.152 14.6565 128.577 14.7466 128.97 14.921C129.363 15.0954 129.715 15.3503 130.004 15.6692C130.294 15.9882 130.513 16.3643 130.649 16.7733C130.784 17.1823 130.833 17.6152 130.792 18.0443C130.834 18.4738 130.786 18.9073 130.65 19.317C130.515 19.7266 130.296 20.1034 130.007 20.423C129.717 20.7426 129.365 20.998 128.971 21.1727C128.578 21.3475 128.153 21.4378 127.722 21.4378C127.292 21.4378 126.866 21.3475 126.473 21.1727C126.08 20.998 125.727 20.7426 125.438 20.423C125.149 20.1034 124.929 19.7266 124.794 19.317C124.659 18.9073 124.611 18.4738 124.652 18.0443ZM129.471 18.0443C129.471 16.629 128.837 15.8013 127.724 15.8013C126.608 15.8013 125.979 16.629 125.979 18.0443C125.979 19.4709 126.608 20.2922 127.724 20.2922C128.837 20.2922 129.471 19.4652 129.471 18.0443Z" fill="black"/>
<path d="M132.517 14.7825H133.753V15.8197H133.849C134.012 15.4472 134.287 15.1349 134.635 14.9264C134.983 14.7179 135.388 14.6235 135.792 14.6565C136.109 14.6326 136.427 14.6805 136.723 14.7966C137.018 14.9127 137.284 15.0941 137.501 15.3274C137.717 15.5606 137.878 15.8397 137.973 16.1439C138.067 16.4481 138.092 16.7698 138.045 17.0849V21.3117H136.761V17.4085C136.761 16.3592 136.306 15.8374 135.356 15.8374C135.141 15.8274 134.926 15.8641 134.726 15.945C134.527 16.026 134.347 16.1493 134.199 16.3064C134.052 16.4636 133.94 16.6509 133.871 16.8555C133.802 17.0602 133.779 17.2773 133.801 17.492V21.3117H132.517V14.7825Z" fill="black"/>
<path d="M145.305 13.1569V14.8122H146.715V15.8976H145.305V19.255C145.305 19.9389 145.586 20.2384 146.225 20.2384C146.389 20.2379 146.553 20.2279 146.715 20.2086V21.282C146.485 21.3234 146.251 21.3454 146.017 21.3478C144.588 21.3478 144.019 20.8437 144.019 19.5849V15.8975H142.985V14.8122H144.019V13.1569H145.305Z" fill="black"/>
<path d="M148.471 12.2336H149.744V15.8317H149.846C150.017 15.4557 150.299 15.1417 150.654 14.9324C151.009 14.7231 151.42 14.6287 151.831 14.6621C152.146 14.6449 152.461 14.6977 152.753 14.8166C153.046 14.9356 153.308 15.1178 153.523 15.3503C153.737 15.5828 153.897 15.8598 153.992 16.1616C154.087 16.4634 154.115 16.7826 154.073 17.0962V21.3117H152.787V17.4141C152.787 16.3712 152.302 15.8431 151.395 15.8431C151.174 15.8249 150.952 15.8553 150.744 15.9323C150.536 16.0092 150.347 16.1307 150.191 16.2884C150.035 16.4461 149.915 16.6361 149.84 16.8451C149.765 17.0541 149.736 17.277 149.756 17.4984V21.3117H148.471V12.2336Z" fill="black"/>
<path d="M161.564 19.5488C161.389 20.1455 161.011 20.6617 160.495 21.007C159.98 21.3523 159.359 21.5048 158.743 21.4377C158.314 21.4491 157.888 21.3667 157.494 21.1963C157.1 21.0259 156.748 20.7715 156.462 20.4509C156.175 20.1302 155.962 19.751 155.837 19.3394C155.712 18.9279 155.677 18.4939 155.736 18.0676C155.679 17.64 155.714 17.2051 155.839 16.7924C155.964 16.3796 156.176 15.9986 156.46 15.6751C156.745 15.3517 157.096 15.0933 157.489 14.9176C157.881 14.7418 158.307 14.6528 158.737 14.6565C160.549 14.6565 161.641 15.8977 161.641 17.948V18.3976H157.045V18.4698C157.024 18.7094 157.054 18.9506 157.133 19.1779C157.211 19.4052 157.336 19.6135 157.499 19.7896C157.662 19.9658 157.86 20.1057 158.081 20.2005C158.301 20.2954 158.539 20.343 158.778 20.3403C159.086 20.3773 159.397 20.3218 159.673 20.1808C159.949 20.0399 160.176 19.8199 160.327 19.5487L161.564 19.5488ZM157.044 17.4446H160.333C160.349 17.2254 160.319 17.0053 160.245 16.7984C160.172 16.5915 160.056 16.4023 159.905 16.243C159.754 16.0837 159.572 15.9578 159.369 15.8735C159.167 15.7891 158.949 15.7481 158.73 15.7532C158.508 15.7504 158.287 15.7922 158.082 15.8762C157.876 15.9602 157.689 16.0847 157.532 16.2424C157.375 16.4 157.251 16.5876 157.167 16.7941C157.083 17.0005 157.041 17.2217 157.044 17.4446Z" fill="black"/>
</g>
</g>
<defs>
<clipPath id="clip0_48_285">
<rect width="193" height="58" fill="white"/>
</clipPath>
</defs>
</svg>
