<svg width="82" height="60" viewBox="0 0 82 60" fill="none" xmlns="http://www.w3.org/2000/svg">
<path d="M81.9006 17.5911L81.8326 17.8365L75.9806 37.5834L75.9346 37.7482C75.8508 37.955 75.691 38.1285 75.4826 38.239L71.5286 32.0547L77.4266 22.8176L81.3806 16.6333C81.5025 16.6992 81.6092 16.7863 81.6946 16.8897C81.7802 16.9922 81.8428 17.1092 81.8786 17.234C81.9063 17.3512 81.9137 17.4717 81.9006 17.5911Z" fill="#F46FFF"/>
<path d="M81.3801 16.6278L77.4261 22.8121H57.7481V22.6693C57.7481 22.6272 57.7701 22.607 57.7701 22.5667C57.8154 22.4145 57.9012 22.2749 58.0199 22.1605C58.1386 22.0461 58.2864 21.9604 58.4501 21.9111L58.6301 21.8708L63.6461 20.642L64.1641 20.5193L80.4761 16.5454L80.6581 16.5051C80.9071 16.4658 81.1632 16.5093 81.3801 16.6278Z" fill="#FFD726"/>
<path d="M75.4849 38.2317C75.3993 38.2749 75.3088 38.3093 75.2149 38.3342C75.0365 38.3763 74.8493 38.3763 74.6709 38.3342C74.5332 38.3015 74.4031 38.2463 74.2869 38.1712L74.0869 37.9881L70.0429 34.3438L58.1109 23.5483L57.9749 23.4256C57.8146 23.2471 57.727 23.0231 57.7269 22.792H65.6129L71.5309 32.0474L75.4849 38.2317Z" fill="#1FD9E0"/>
<path d="M73.8132 22.8122H77.4272L81.3812 16.6279L73.8132 22.8122Z" fill="#FF9C00"/>
<path d="M73.3366 29.224L75.4826 38.234L71.5286 32.0497L73.3366 29.224Z" fill="#CD12D8"/>
<path d="M65.6121 22.8119L67.4421 25.6394L57.7481 22.8119H65.6121Z" fill="#0FA9AF"/>
<path d="M44.4446 47.9805C43.2175 47.979 42.0179 48.3241 40.9988 48.9719C40.9848 49.0098 40.9688 49.0458 40.9528 49.0818C40.4861 50.1483 39.6926 51.0575 38.6749 51.692C38.3516 51.8959 38.008 52.0692 37.649 52.2094C36.1684 52.7911 34.5055 52.7959 33.0212 52.2227C32.6383 52.0762 32.2724 51.8926 31.9293 51.6749C30.9259 51.0408 30.1441 50.1382 29.6834 49.0818C29.5679 48.8192 29.4737 48.5486 29.4014 48.2724C29.1286 47.237 29.1636 46.1503 29.5026 45.1325C29.8415 44.1148 30.4711 43.206 31.3216 42.5066C32.1721 41.8073 33.2103 41.3448 34.3211 41.1704C35.4319 40.996 36.572 41.1166 37.615 41.5187L37.649 41.532C38.5306 41.8761 39.3145 42.412 39.9374 43.0962C40.5603 43.7804 41.0047 44.5938 41.2348 45.4709L45.3425 42.0911C44.6117 40.718 43.5751 39.5115 42.3043 38.5551C41.0336 37.5987 39.559 36.915 37.9823 36.5514C36.4057 36.1877 34.7645 36.1527 33.1722 36.4488C31.5799 36.7449 30.0744 37.365 28.7596 38.2663C27.4447 39.1677 26.352 40.3287 25.5567 41.6693C24.7614 43.0099 24.2826 44.4982 24.1533 46.0313C24.024 47.5644 24.2473 49.1058 24.8078 50.5491C25.3682 51.9925 26.2525 53.3033 27.3996 54.3912C27.8679 54.8353 28.3773 55.2387 28.9215 55.5967C30.3907 56.5654 32.0833 57.1867 33.8577 57.4087C35.6321 57.6306 37.4368 57.4467 39.1209 56.8724C39.2889 56.8156 39.4549 56.753 39.6209 56.6829C41.4333 55.9716 43.0168 54.8215 44.213 53.3478C45.4091 51.8742 46.1758 50.1285 46.4365 48.2857C45.7945 48.0816 45.1217 47.9785 44.4446 47.9805Z" fill="white"/>
<path d="M45.3439 42.0974L41.2341 45.4807L33.0246 52.236L28.9228 55.6137C27.3893 54.605 26.1463 53.2481 25.307 51.6668L29.4048 48.2948L37.6183 41.5338L41.7221 38.1543C43.2587 39.1645 44.504 40.5241 45.3439 42.1088V42.0974Z" fill="white"/>
<path d="M46.4394 48.3043C46.1788 50.1491 45.412 51.8966 44.2159 53.3719C43.0198 54.8471 41.4362 55.9984 39.6238 56.7105C39.4578 56.775 39.2918 56.8376 39.1238 56.9003C38.635 56.1252 38.3404 55.2541 38.2627 54.3539C38.1851 53.4537 38.3264 52.5487 38.6758 51.7085C39.692 51.0728 40.4841 50.1627 40.9497 49.0956C40.9657 49.0596 40.9817 49.0235 40.9957 48.9856C41.7865 48.4836 42.6885 48.161 43.6318 48.0429C44.5751 47.9247 45.5344 48.0142 46.4354 48.3043H46.4394Z" fill="white"/>
<path fill-rule="evenodd" clip-rule="evenodd" d="M22.0073 39.359C22.0073 38.5344 21.6913 37.7437 21.1286 37.1606C20.566 36.5776 19.8028 36.25 19.0071 36.25H1.20588V36.9402C1.20588 38.0946 1.64841 39.2017 2.43612 40.018C3.22383 40.8342 4.29219 41.2928 5.40618 41.2928H13.8068L2.22795 51.737C1.9068 52.0288 1.64949 52.3884 1.47323 52.7916C1.29696 53.1948 1.20582 53.6323 1.20588 54.075V54.6035C1.20588 55.4281 1.52197 56.2188 2.08462 56.8019C2.64727 57.3849 3.41039 57.7125 4.20609 57.7125H4.24009L4.25209 57.7021H22.0073V57.0182C22.0073 55.8638 21.5648 54.7567 20.7771 53.9404C19.9894 53.1241 18.921 52.6656 17.8071 52.6656H9.71048L21.0073 42.2297C21.3222 41.9378 21.574 41.5804 21.7463 41.1807C21.9187 40.781 22.0076 40.3481 22.0073 39.9103V39.359Z" fill="white"/>
<path d="M59.6768 36.25C56.8332 36.2533 54.0926 37.2374 51.9879 39.0108C49.8832 40.7842 48.5649 43.2202 48.2893 45.8451C48.0136 48.47 48.8004 51.0962 50.4966 53.2129C52.1928 55.3296 54.6772 56.7856 57.4667 57.2977C60.2561 57.8099 63.1512 57.3415 65.589 55.9837C68.0267 54.626 69.8329 52.4759 70.6563 49.9515C71.4797 47.4272 71.2614 44.7091 70.0439 42.3257C68.8263 39.9424 66.6966 38.0642 64.0689 37.0564C62.6763 36.5223 61.1837 36.2483 59.6768 36.25ZM59.6768 52.6713C58.1295 52.6709 56.6377 52.1368 55.4914 51.1728C54.3452 50.2088 53.6265 48.8839 53.4751 47.4557C53.3238 46.0276 53.7505 44.5982 54.6724 43.4457C55.5943 42.2931 56.9455 41.4998 58.4631 41.22C59.9807 40.9402 61.5562 41.1939 62.8833 41.9317C64.2104 42.6696 65.1942 43.8389 65.6433 45.2122C66.0924 46.5854 65.9748 48.0646 65.3132 49.3619C64.6517 50.6592 63.4936 51.6819 62.0641 52.2311C61.3072 52.5218 60.496 52.6714 59.6768 52.6713Z" fill="white"/>
</svg>
