<svg width="786" height="588" viewBox="0 0 786 588" fill="none" xmlns="http://www.w3.org/2000/svg">
<path d="M531.804 563.171C529.908 563.171 528.486 562.703 527.538 561.767C526.59 560.831 526.116 559.433 526.116 557.573V550.283H529.428V557.591C529.428 558.515 529.62 559.217 530.004 559.697C530.388 560.165 530.988 560.399 531.804 560.399C532.62 560.399 533.22 560.165 533.604 559.697C533.988 559.217 534.18 558.515 534.18 557.591V550.283H537.456V557.573C537.456 559.433 536.988 560.831 536.052 561.767C535.116 562.703 533.7 563.171 531.804 563.171ZM543.018 563.171C542.166 563.171 541.392 563.087 540.696 562.919C540.012 562.739 539.43 562.499 538.95 562.199L539.724 560.111C540.192 560.375 540.714 560.591 541.29 560.759C541.878 560.927 542.46 561.011 543.036 561.011C543.492 561.011 543.822 560.945 544.026 560.813C544.242 560.669 544.35 560.483 544.35 560.255C544.35 560.075 544.284 559.931 544.152 559.823C544.02 559.715 543.822 559.637 543.558 559.589L541.614 559.247C540.846 559.103 540.246 558.821 539.814 558.401C539.394 557.969 539.184 557.411 539.184 556.727C539.184 556.103 539.352 555.563 539.688 555.107C540.024 554.639 540.504 554.279 541.128 554.027C541.752 553.763 542.49 553.631 543.342 553.631C544.038 553.631 544.698 553.709 545.322 553.865C545.958 554.021 546.51 554.267 546.978 554.603L546.15 556.637C545.778 556.385 545.34 556.181 544.836 556.025C544.344 555.857 543.882 555.773 543.45 555.773C542.934 555.773 542.568 555.851 542.352 556.007C542.136 556.151 542.028 556.331 542.028 556.547C542.028 556.715 542.088 556.859 542.208 556.979C542.328 557.087 542.52 557.165 542.784 557.213L544.728 557.555C545.52 557.687 546.126 557.963 546.546 558.383C546.978 558.791 547.194 559.349 547.194 560.057C547.194 560.717 547.014 561.281 546.654 561.749C546.306 562.205 545.82 562.559 545.196 562.811C544.572 563.051 543.846 563.171 543.018 563.171ZM553.437 563.171C551.781 563.171 550.491 562.745 549.567 561.893C548.655 561.041 548.199 559.871 548.199 558.383C548.199 557.459 548.391 556.637 548.775 555.917C549.159 555.197 549.699 554.639 550.395 554.243C551.091 553.835 551.907 553.631 552.843 553.631C553.767 553.631 554.535 553.835 555.147 554.243C555.771 554.639 556.239 555.191 556.551 555.899C556.863 556.595 557.019 557.405 557.019 558.329V559.013H550.881V557.501H554.661L554.355 557.753C554.355 557.069 554.223 556.565 553.959 556.241C553.707 555.905 553.347 555.737 552.879 555.737C552.339 555.737 551.925 555.941 551.637 556.349C551.361 556.745 551.223 557.345 551.223 558.149V558.473C551.223 559.277 551.421 559.865 551.817 560.237C552.213 560.609 552.783 560.795 553.527 560.795C554.007 560.795 554.457 560.741 554.877 560.633C555.309 560.525 555.717 560.351 556.101 560.111L556.929 562.199C556.473 562.511 555.945 562.751 555.345 562.919C554.745 563.087 554.109 563.171 553.437 563.171ZM558.545 562.973V556.331C558.545 555.911 558.533 555.491 558.509 555.071C558.485 554.651 558.449 554.237 558.401 553.829H561.497L561.839 556.637H561.353C561.473 555.953 561.665 555.389 561.929 554.945C562.193 554.501 562.523 554.171 562.919 553.955C563.315 553.739 563.783 553.631 564.323 553.631C564.575 553.631 564.761 553.643 564.881 553.667C565.013 553.679 565.151 553.715 565.295 553.775V556.583C564.995 556.451 564.755 556.367 564.575 556.331C564.395 556.295 564.161 556.277 563.873 556.277C563.381 556.277 562.979 556.367 562.667 556.547C562.355 556.715 562.127 556.979 561.983 557.339C561.851 557.699 561.785 558.161 561.785 558.725V562.973H558.545ZM571.465 562.973V556.331C571.465 555.911 571.453 555.491 571.429 555.071C571.405 554.651 571.369 554.237 571.321 553.829H574.417L574.759 556.637H574.273C574.393 555.953 574.585 555.389 574.849 554.945C575.113 554.501 575.443 554.171 575.839 553.955C576.235 553.739 576.703 553.631 577.243 553.631C577.495 553.631 577.681 553.643 577.801 553.667C577.933 553.679 578.071 553.715 578.215 553.775V556.583C577.915 556.451 577.675 556.367 577.495 556.331C577.315 556.295 577.081 556.277 576.793 556.277C576.301 556.277 575.899 556.367 575.587 556.547C575.275 556.715 575.047 556.979 574.903 557.339C574.771 557.699 574.705 558.161 574.705 558.725V562.973H571.465ZM583.847 563.171C582.191 563.171 580.901 562.745 579.977 561.893C579.065 561.041 578.609 559.871 578.609 558.383C578.609 557.459 578.801 556.637 579.185 555.917C579.569 555.197 580.109 554.639 580.805 554.243C581.501 553.835 582.317 553.631 583.253 553.631C584.177 553.631 584.945 553.835 585.557 554.243C586.181 554.639 586.649 555.191 586.961 555.899C587.273 556.595 587.429 557.405 587.429 558.329V559.013H581.291V557.501H585.071L584.765 557.753C584.765 557.069 584.633 556.565 584.369 556.241C584.117 555.905 583.757 555.737 583.289 555.737C582.749 555.737 582.335 555.941 582.047 556.349C581.771 556.745 581.633 557.345 581.633 558.149V558.473C581.633 559.277 581.831 559.865 582.227 560.237C582.623 560.609 583.193 560.795 583.937 560.795C584.417 560.795 584.867 560.741 585.287 560.633C585.719 560.525 586.127 560.351 586.511 560.111L587.339 562.199C586.883 562.511 586.355 562.751 585.755 562.919C585.155 563.087 584.519 563.171 583.847 563.171ZM591.443 562.973L587.645 553.829H590.903L593.171 559.841H592.721L594.953 553.829H596.987L599.237 559.841H598.859L601.091 553.829H604.151L600.389 562.973H597.707L595.241 556.763H596.465L594.125 562.973H591.443ZM608.428 563.171C607.636 563.171 606.94 562.985 606.34 562.613C605.74 562.229 605.266 561.677 604.918 560.957C604.582 560.237 604.414 559.385 604.414 558.401C604.414 557.405 604.582 556.553 604.918 555.845C605.266 555.125 605.74 554.579 606.34 554.207C606.94 553.823 607.636 553.631 608.428 553.631C609.136 553.631 609.772 553.799 610.336 554.135C610.912 554.471 611.29 554.909 611.47 555.449H611.29L611.488 553.829H614.566C614.53 554.237 614.494 554.651 614.458 555.071C614.434 555.491 614.422 555.905 614.422 556.313V562.973H611.254L611.218 561.425H611.434C611.254 561.953 610.876 562.379 610.3 562.703C609.736 563.015 609.112 563.171 608.428 563.171ZM609.454 560.795C609.994 560.795 610.432 560.609 610.768 560.237C611.104 559.853 611.272 559.241 611.272 558.401C611.272 557.561 611.104 556.955 610.768 556.583C610.432 556.199 609.994 556.007 609.454 556.007C608.914 556.007 608.476 556.199 608.14 556.583C607.804 556.955 607.636 557.561 607.636 558.401C607.636 559.241 607.798 559.853 608.122 560.237C608.458 560.609 608.902 560.795 609.454 560.795ZM616.412 562.973V556.331C616.412 555.911 616.4 555.491 616.376 555.071C616.352 554.651 616.316 554.237 616.268 553.829H619.364L619.706 556.637H619.22C619.34 555.953 619.532 555.389 619.796 554.945C620.06 554.501 620.39 554.171 620.786 553.955C621.182 553.739 621.65 553.631 622.19 553.631C622.442 553.631 622.628 553.643 622.748 553.667C622.88 553.679 623.018 553.715 623.162 553.775V556.583C622.862 556.451 622.622 556.367 622.442 556.331C622.262 556.295 622.028 556.277 621.74 556.277C621.248 556.277 620.846 556.367 620.534 556.547C620.222 556.715 619.994 556.979 619.85 557.339C619.718 557.699 619.652 558.161 619.652 558.725V562.973H616.412ZM627.606 563.171C626.826 563.171 626.13 562.985 625.518 562.613C624.906 562.229 624.426 561.677 624.078 560.957C623.73 560.237 623.556 559.385 623.556 558.401C623.556 557.405 623.724 556.553 624.06 555.845C624.408 555.125 624.888 554.579 625.5 554.207C626.124 553.823 626.826 553.631 627.606 553.631C628.302 553.631 628.932 553.793 629.496 554.117C630.06 554.429 630.438 554.849 630.63 555.377H630.36V549.725H633.564V562.973H630.414V561.335H630.648C630.48 561.887 630.108 562.331 629.532 562.667C628.968 563.003 628.326 563.171 627.606 563.171ZM628.632 560.795C629.16 560.795 629.592 560.609 629.928 560.237C630.276 559.853 630.45 559.241 630.45 558.401C630.45 557.561 630.276 556.955 629.928 556.583C629.592 556.199 629.16 556.007 628.632 556.007C628.092 556.007 627.648 556.199 627.3 556.583C626.964 556.955 626.796 557.561 626.796 558.401C626.796 559.241 626.964 559.853 627.3 560.237C627.648 560.609 628.092 560.795 628.632 560.795ZM639.064 563.171C638.212 563.171 637.438 563.087 636.742 562.919C636.058 562.739 635.476 562.499 634.996 562.199L635.77 560.111C636.238 560.375 636.76 560.591 637.336 560.759C637.924 560.927 638.506 561.011 639.082 561.011C639.538 561.011 639.868 560.945 640.072 560.813C640.288 560.669 640.396 560.483 640.396 560.255C640.396 560.075 640.33 559.931 640.198 559.823C640.066 559.715 639.868 559.637 639.604 559.589L637.66 559.247C636.892 559.103 636.292 558.821 635.86 558.401C635.44 557.969 635.23 557.411 635.23 556.727C635.23 556.103 635.398 555.563 635.734 555.107C636.07 554.639 636.55 554.279 637.174 554.027C637.798 553.763 638.536 553.631 639.388 553.631C640.084 553.631 640.744 553.709 641.368 553.865C642.004 554.021 642.556 554.267 643.024 554.603L642.196 556.637C641.824 556.385 641.386 556.181 640.882 556.025C640.39 555.857 639.928 555.773 639.496 555.773C638.98 555.773 638.614 555.851 638.398 556.007C638.182 556.151 638.074 556.331 638.074 556.547C638.074 556.715 638.134 556.859 638.254 556.979C638.374 557.087 638.566 557.165 638.83 557.213L640.774 557.555C641.566 557.687 642.172 557.963 642.592 558.383C643.024 558.791 643.24 559.349 643.24 560.057C643.24 560.717 643.06 561.281 642.7 561.749C642.352 562.205 641.866 562.559 641.242 562.811C640.618 563.051 639.892 563.171 639.064 563.171ZM653.463 563.171C652.671 563.171 651.975 562.985 651.375 562.613C650.775 562.229 650.301 561.677 649.953 560.957C649.617 560.237 649.449 559.385 649.449 558.401C649.449 557.405 649.617 556.553 649.953 555.845C650.301 555.125 650.775 554.579 651.375 554.207C651.975 553.823 652.671 553.631 653.463 553.631C654.171 553.631 654.807 553.799 655.371 554.135C655.947 554.471 656.325 554.909 656.505 555.449H656.325L656.523 553.829H659.601C659.565 554.237 659.529 554.651 659.493 555.071C659.469 555.491 659.457 555.905 659.457 556.313V562.973H656.289L656.253 561.425H656.469C656.289 561.953 655.911 562.379 655.335 562.703C654.771 563.015 654.147 563.171 653.463 563.171ZM654.489 560.795C655.029 560.795 655.467 560.609 655.803 560.237C656.139 559.853 656.307 559.241 656.307 558.401C656.307 557.561 656.139 556.955 655.803 556.583C655.467 556.199 655.029 556.007 654.489 556.007C653.949 556.007 653.511 556.199 653.175 556.583C652.839 556.955 652.671 557.561 652.671 558.401C652.671 559.241 652.833 559.853 653.157 560.237C653.493 560.609 653.937 560.795 654.489 560.795ZM661.447 562.973V556.313C661.447 555.905 661.435 555.491 661.411 555.071C661.387 554.651 661.351 554.237 661.303 553.829H664.399L664.579 555.413H664.381C664.681 554.837 665.107 554.399 665.659 554.099C666.211 553.787 666.835 553.631 667.531 553.631C668.599 553.631 669.397 553.949 669.925 554.585C670.465 555.209 670.735 556.187 670.735 557.519V562.973H667.531V557.663C667.531 557.075 667.429 556.667 667.225 556.439C667.021 556.199 666.727 556.079 666.343 556.079C665.839 556.079 665.431 556.247 665.119 556.583C664.807 556.907 664.651 557.339 664.651 557.879V562.973H661.447ZM676.298 563.171C675.518 563.171 674.822 562.985 674.21 562.613C673.598 562.229 673.118 561.677 672.77 560.957C672.422 560.237 672.248 559.385 672.248 558.401C672.248 557.405 672.416 556.553 672.752 555.845C673.1 555.125 673.58 554.579 674.192 554.207C674.816 553.823 675.518 553.631 676.298 553.631C676.994 553.631 677.624 553.793 678.188 554.117C678.752 554.429 679.13 554.849 679.322 555.377H679.052V549.725H682.256V562.973H679.106V561.335H679.34C679.172 561.887 678.8 562.331 678.224 562.667C677.66 563.003 677.018 563.171 676.298 563.171ZM677.324 560.795C677.852 560.795 678.284 560.609 678.62 560.237C678.968 559.853 679.142 559.241 679.142 558.401C679.142 557.561 678.968 556.955 678.62 556.583C678.284 556.199 677.852 556.007 677.324 556.007C676.784 556.007 676.34 556.199 675.992 556.583C675.656 556.955 675.488 557.561 675.488 558.401C675.488 559.241 675.656 559.853 675.992 560.237C676.34 560.609 676.784 560.795 677.324 560.795ZM694.273 563.171C692.617 563.171 691.327 562.745 690.403 561.893C689.491 561.041 689.035 559.871 689.035 558.383C689.035 557.459 689.227 556.637 689.611 555.917C689.995 555.197 690.535 554.639 691.231 554.243C691.927 553.835 692.743 553.631 693.679 553.631C694.603 553.631 695.371 553.835 695.983 554.243C696.607 554.639 697.075 555.191 697.387 555.899C697.699 556.595 697.855 557.405 697.855 558.329V559.013H691.717V557.501H695.497L695.191 557.753C695.191 557.069 695.059 556.565 694.795 556.241C694.543 555.905 694.183 555.737 693.715 555.737C693.175 555.737 692.761 555.941 692.473 556.349C692.197 556.745 692.059 557.345 692.059 558.149V558.473C692.059 559.277 692.257 559.865 692.653 560.237C693.049 560.609 693.619 560.795 694.363 560.795C694.843 560.795 695.293 560.741 695.713 560.633C696.145 560.525 696.553 560.351 696.937 560.111L697.765 562.199C697.309 562.511 696.781 562.751 696.181 562.919C695.581 563.087 694.945 563.171 694.273 563.171ZM704.007 563.171C702.999 563.171 702.117 562.979 701.361 562.595C700.605 562.211 700.017 561.665 699.597 560.957C699.177 560.237 698.967 559.379 698.967 558.383C698.967 557.387 699.177 556.535 699.597 555.827C700.017 555.119 700.605 554.579 701.361 554.207C702.117 553.823 702.999 553.631 704.007 553.631C704.631 553.631 705.243 553.715 705.843 553.883C706.443 554.051 706.929 554.291 707.301 554.603L706.401 556.781C706.113 556.541 705.783 556.361 705.411 556.241C705.051 556.109 704.697 556.043 704.349 556.043C703.689 556.043 703.173 556.241 702.801 556.637C702.441 557.033 702.261 557.615 702.261 558.383C702.261 559.151 702.441 559.739 702.801 560.147C703.173 560.543 703.689 560.741 704.349 560.741C704.685 560.741 705.039 560.681 705.411 560.561C705.783 560.429 706.113 560.249 706.401 560.021L707.301 562.199C706.917 562.499 706.425 562.739 705.825 562.919C705.237 563.087 704.631 563.171 704.007 563.171ZM713.023 563.171C712.003 563.171 711.121 562.979 710.377 562.595C709.633 562.211 709.057 561.665 708.649 560.957C708.241 560.237 708.037 559.385 708.037 558.401C708.037 557.405 708.241 556.553 708.649 555.845C709.057 555.137 709.633 554.591 710.377 554.207C711.121 553.823 712.003 553.631 713.023 553.631C714.031 553.631 714.907 553.823 715.651 554.207C716.395 554.591 716.971 555.143 717.379 555.863C717.787 556.571 717.991 557.417 717.991 558.401C717.991 559.373 717.787 560.219 717.379 560.939C716.971 561.659 716.395 562.211 715.651 562.595C714.907 562.979 714.031 563.171 713.023 563.171ZM713.023 560.795C713.551 560.795 713.971 560.609 714.283 560.237C714.595 559.853 714.751 559.241 714.751 558.401C714.751 557.561 714.595 556.955 714.283 556.583C713.971 556.199 713.551 556.007 713.023 556.007C712.483 556.007 712.057 556.199 711.745 556.583C711.433 556.955 711.277 557.561 711.277 558.401C711.277 559.241 711.433 559.853 711.745 560.237C712.057 560.609 712.483 560.795 713.023 560.795ZM723.07 563.171C722.218 563.171 721.444 563.087 720.748 562.919C720.064 562.739 719.482 562.499 719.002 562.199L719.776 560.111C720.244 560.375 720.766 560.591 721.342 560.759C721.93 560.927 722.512 561.011 723.088 561.011C723.544 561.011 723.874 560.945 724.078 560.813C724.294 560.669 724.402 560.483 724.402 560.255C724.402 560.075 724.336 559.931 724.204 559.823C724.072 559.715 723.874 559.637 723.61 559.589L721.666 559.247C720.898 559.103 720.298 558.821 719.866 558.401C719.446 557.969 719.236 557.411 719.236 556.727C719.236 556.103 719.404 555.563 719.74 555.107C720.076 554.639 720.556 554.279 721.18 554.027C721.804 553.763 722.542 553.631 723.394 553.631C724.09 553.631 724.75 553.709 725.374 553.865C726.01 554.021 726.562 554.267 727.03 554.603L726.202 556.637C725.83 556.385 725.392 556.181 724.888 556.025C724.396 555.857 723.934 555.773 723.502 555.773C722.986 555.773 722.62 555.851 722.404 556.007C722.188 556.151 722.08 556.331 722.08 556.547C722.08 556.715 722.14 556.859 722.26 556.979C722.38 557.087 722.572 557.165 722.836 557.213L724.78 557.555C725.572 557.687 726.178 557.963 726.598 558.383C727.03 558.791 727.246 559.349 727.246 560.057C727.246 560.717 727.066 561.281 726.706 561.749C726.358 562.205 725.872 562.559 725.248 562.811C724.624 563.051 723.898 563.171 723.07 563.171ZM728.526 567.059L727.77 564.575C728.346 564.467 728.826 564.347 729.21 564.215C729.606 564.095 729.93 563.927 730.182 563.711C730.434 563.495 730.632 563.213 730.776 562.865L731.226 561.821L731.154 563.027L727.158 553.829H730.542L732.882 559.895H732.288L734.7 553.829H737.868L733.764 563.171C733.44 563.903 733.092 564.503 732.72 564.971C732.36 565.439 731.964 565.811 731.532 566.087C731.112 566.363 730.65 566.567 730.146 566.699C729.654 566.843 729.114 566.963 728.526 567.059ZM741.861 563.171C741.009 563.171 740.235 563.087 739.539 562.919C738.855 562.739 738.273 562.499 737.793 562.199L738.567 560.111C739.035 560.375 739.557 560.591 740.133 560.759C740.721 560.927 741.303 561.011 741.879 561.011C742.335 561.011 742.665 560.945 742.869 560.813C743.085 560.669 743.193 560.483 743.193 560.255C743.193 560.075 743.127 559.931 742.995 559.823C742.863 559.715 742.665 559.637 742.401 559.589L740.457 559.247C739.689 559.103 739.089 558.821 738.657 558.401C738.237 557.969 738.027 557.411 738.027 556.727C738.027 556.103 738.195 555.563 738.531 555.107C738.867 554.639 739.347 554.279 739.971 554.027C740.595 553.763 741.333 553.631 742.185 553.631C742.881 553.631 743.541 553.709 744.165 553.865C744.801 554.021 745.353 554.267 745.821 554.603L744.993 556.637C744.621 556.385 744.183 556.181 743.679 556.025C743.187 555.857 742.725 555.773 742.293 555.773C741.777 555.773 741.411 555.851 741.195 556.007C740.979 556.151 740.871 556.331 740.871 556.547C740.871 556.715 740.931 556.859 741.051 556.979C741.171 557.087 741.363 557.165 741.627 557.213L743.571 557.555C744.363 557.687 744.969 557.963 745.389 558.383C745.821 558.791 746.037 559.349 746.037 560.057C746.037 560.717 745.857 561.281 745.497 561.749C745.149 562.205 744.663 562.559 744.039 562.811C743.415 563.051 742.689 563.171 741.861 563.171ZM752.049 563.171C750.753 563.171 749.775 562.865 749.115 562.253C748.467 561.629 748.143 560.687 748.143 559.427V556.187H746.433V553.829H748.143V551.669L751.347 550.913V553.829H753.579V556.187H751.347V559.301C751.347 559.829 751.467 560.183 751.707 560.363C751.947 560.531 752.235 560.615 752.571 560.615C752.775 560.615 752.949 560.603 753.093 560.579C753.249 560.543 753.411 560.495 753.579 560.435V562.901C753.315 563.009 753.051 563.081 752.787 563.117C752.535 563.153 752.289 563.171 752.049 563.171ZM759.558 563.171C757.902 563.171 756.612 562.745 755.688 561.893C754.776 561.041 754.32 559.871 754.32 558.383C754.32 557.459 754.512 556.637 754.896 555.917C755.28 555.197 755.82 554.639 756.516 554.243C757.212 553.835 758.028 553.631 758.964 553.631C759.888 553.631 760.656 553.835 761.268 554.243C761.892 554.639 762.36 555.191 762.672 555.899C762.984 556.595 763.14 557.405 763.14 558.329V559.013H757.002V557.501H760.782L760.476 557.753C760.476 557.069 760.344 556.565 760.08 556.241C759.828 555.905 759.468 555.737 759 555.737C758.46 555.737 758.046 555.941 757.758 556.349C757.482 556.745 757.344 557.345 757.344 558.149V558.473C757.344 559.277 757.542 559.865 757.938 560.237C758.334 560.609 758.904 560.795 759.648 560.795C760.128 560.795 760.578 560.741 760.998 560.633C761.43 560.525 761.838 560.351 762.222 560.111L763.05 562.199C762.594 562.511 762.066 562.751 761.466 562.919C760.866 563.087 760.23 563.171 759.558 563.171ZM764.666 562.973V556.313C764.666 555.905 764.654 555.491 764.63 555.071C764.606 554.651 764.57 554.237 764.522 553.829H767.618L767.798 555.413H767.6C767.864 554.861 768.254 554.429 768.77 554.117C769.286 553.793 769.892 553.631 770.588 553.631C771.26 553.631 771.83 553.793 772.298 554.117C772.778 554.429 773.126 554.927 773.342 555.611H773.036C773.336 554.987 773.768 554.501 774.332 554.153C774.908 553.805 775.55 553.631 776.258 553.631C777.302 553.631 778.082 553.949 778.598 554.585C779.114 555.209 779.372 556.187 779.372 557.519V562.973H776.15V557.627C776.15 557.063 776.066 556.667 775.898 556.439C775.73 556.199 775.46 556.079 775.088 556.079C774.62 556.079 774.254 556.247 773.99 556.583C773.738 556.919 773.612 557.381 773.612 557.969V562.973H770.408V557.627C770.408 557.063 770.318 556.667 770.138 556.439C769.97 556.199 769.706 556.079 769.346 556.079C768.878 556.079 768.512 556.247 768.248 556.583C767.996 556.919 767.87 557.381 767.87 557.969V562.973H764.666Z" fill="white"/>
<path d="M530.04 587.171C529.14 587.171 528.27 587.051 527.43 586.811C526.602 586.559 525.936 586.223 525.432 585.803L526.44 583.355C526.968 583.727 527.526 584.003 528.114 584.183C528.702 584.363 529.308 584.453 529.932 584.453C530.58 584.453 531.066 584.345 531.39 584.129C531.714 583.901 531.876 583.565 531.876 583.121C531.876 582.701 531.726 582.389 531.426 582.185C531.138 581.981 530.706 581.879 530.13 581.879H527.898V579.287H529.806C530.322 579.287 530.73 579.179 531.03 578.963C531.33 578.735 531.48 578.417 531.48 578.009C531.48 577.613 531.336 577.313 531.048 577.109C530.76 576.905 530.34 576.803 529.788 576.803C528.636 576.803 527.592 577.169 526.656 577.901L525.648 575.489C526.188 575.045 526.854 574.703 527.646 574.463C528.438 574.211 529.26 574.085 530.112 574.085C531.528 574.085 532.638 574.397 533.442 575.021C534.246 575.633 534.648 576.485 534.648 577.577C534.648 578.309 534.438 578.939 534.018 579.467C533.61 579.995 533.046 580.343 532.326 580.511V580.259C533.166 580.391 533.826 580.745 534.306 581.321C534.786 581.885 535.026 582.593 535.026 583.445C535.026 584.597 534.582 585.509 533.694 586.181C532.806 586.841 531.588 587.171 530.04 587.171ZM541.697 587.171C540.017 587.171 538.721 586.613 537.809 585.497C536.897 584.369 536.441 582.785 536.441 580.745C536.441 579.341 536.675 578.147 537.143 577.163C537.623 576.167 538.295 575.405 539.159 574.877C540.035 574.349 541.085 574.085 542.309 574.085C543.005 574.085 543.689 574.193 544.361 574.409C545.045 574.625 545.645 574.949 546.161 575.381L545.135 577.811C544.703 577.463 544.241 577.211 543.749 577.055C543.257 576.887 542.765 576.803 542.273 576.803C541.373 576.803 540.689 577.085 540.221 577.649C539.765 578.201 539.537 579.035 539.537 580.151V581.087H539.267C539.375 580.571 539.573 580.133 539.861 579.773C540.149 579.401 540.509 579.119 540.941 578.927C541.385 578.735 541.871 578.639 542.399 578.639C543.107 578.639 543.737 578.819 544.289 579.179C544.841 579.527 545.279 580.013 545.603 580.637C545.939 581.261 546.107 581.969 546.107 582.761C546.107 583.625 545.915 584.387 545.531 585.047C545.159 585.707 544.643 586.229 543.983 586.613C543.323 586.985 542.561 587.171 541.697 587.171ZM541.517 584.651C541.829 584.651 542.105 584.579 542.345 584.435C542.585 584.291 542.765 584.087 542.885 583.823C543.017 583.559 543.083 583.253 543.083 582.905C543.083 582.545 543.017 582.239 542.885 581.987C542.765 581.723 542.585 581.519 542.345 581.375C542.105 581.219 541.829 581.141 541.517 581.141C541.205 581.141 540.929 581.219 540.689 581.375C540.449 581.519 540.263 581.723 540.131 581.987C540.011 582.239 539.951 582.545 539.951 582.905C539.951 583.253 540.011 583.559 540.131 583.823C540.263 584.087 540.449 584.291 540.689 584.435C540.929 584.579 541.205 584.651 541.517 584.651ZM552.904 586.973H550.24L557.656 574.283H560.32L552.904 586.973ZM550.51 581.843C549.43 581.843 548.59 581.489 547.99 580.781C547.39 580.061 547.09 579.113 547.09 577.937C547.09 576.749 547.39 575.813 547.99 575.129C548.602 574.433 549.442 574.085 550.51 574.085C551.578 574.085 552.412 574.439 553.012 575.147C553.612 575.855 553.912 576.785 553.912 577.937C553.912 579.113 553.612 580.061 553.012 580.781C552.412 581.489 551.578 581.843 550.51 581.843ZM550.51 579.899C550.786 579.899 550.996 579.755 551.14 579.467C551.296 579.167 551.374 578.657 551.374 577.937C551.374 577.217 551.296 576.719 551.14 576.443C550.984 576.167 550.774 576.029 550.51 576.029C550.222 576.029 550.006 576.161 549.862 576.425C549.718 576.689 549.646 577.193 549.646 577.937C549.646 578.681 549.718 579.197 549.862 579.485C550.006 579.761 550.222 579.899 550.51 579.899ZM560.05 587.171C558.982 587.171 558.148 586.817 557.548 586.109C556.948 585.389 556.648 584.441 556.648 583.265C556.648 582.077 556.948 581.141 557.548 580.457C558.16 579.761 558.994 579.413 560.05 579.413C561.13 579.413 561.964 579.767 562.552 580.475C563.152 581.183 563.452 582.113 563.452 583.265C563.452 584.441 563.152 585.389 562.552 586.109C561.964 586.817 561.13 587.171 560.05 587.171ZM560.05 585.227C560.338 585.227 560.554 585.083 560.698 584.795C560.842 584.495 560.914 583.985 560.914 583.265C560.914 582.545 560.836 582.047 560.68 581.771C560.536 581.495 560.326 581.357 560.05 581.357C559.774 581.357 559.558 581.495 559.402 581.771C559.258 582.035 559.186 582.533 559.186 583.265C559.186 584.009 559.258 584.525 559.402 584.813C559.558 585.089 559.774 585.227 560.05 585.227Z" fill="white"/>
<path d="M686.068 243V232.992H682.216V230.31H693.25V232.992H689.398V243H686.068ZM697.869 243.198C696.213 243.198 694.923 242.772 693.999 241.92C693.087 241.068 692.631 239.898 692.631 238.41C692.631 237.486 692.823 236.664 693.207 235.944C693.591 235.224 694.131 234.666 694.827 234.27C695.523 233.862 696.339 233.658 697.275 233.658C698.199 233.658 698.967 233.862 699.579 234.27C700.203 234.666 700.671 235.218 700.983 235.926C701.295 236.622 701.451 237.432 701.451 238.356V239.04H695.313V237.528H699.093L698.787 237.78C698.787 237.096 698.655 236.592 698.391 236.268C698.139 235.932 697.779 235.764 697.311 235.764C696.771 235.764 696.357 235.968 696.069 236.376C695.793 236.772 695.655 237.372 695.655 238.176V238.5C695.655 239.304 695.853 239.892 696.249 240.264C696.645 240.636 697.215 240.822 697.959 240.822C698.439 240.822 698.889 240.768 699.309 240.66C699.741 240.552 700.149 240.378 700.533 240.138L701.361 242.226C700.905 242.538 700.377 242.778 699.777 242.946C699.177 243.114 698.541 243.198 697.869 243.198ZM706.576 243.198C705.784 243.198 705.088 243.012 704.488 242.64C703.888 242.256 703.414 241.704 703.066 240.984C702.73 240.264 702.562 239.412 702.562 238.428C702.562 237.432 702.73 236.58 703.066 235.872C703.414 235.152 703.888 234.606 704.488 234.234C705.088 233.85 705.784 233.658 706.576 233.658C707.284 233.658 707.92 233.826 708.484 234.162C709.06 234.498 709.438 234.936 709.618 235.476H709.438L709.636 233.856H712.714C712.678 234.264 712.642 234.678 712.606 235.098C712.582 235.518 712.57 235.932 712.57 236.34V243H709.402L709.366 241.452H709.582C709.402 241.98 709.024 242.406 708.448 242.73C707.884 243.042 707.26 243.198 706.576 243.198ZM707.602 240.822C708.142 240.822 708.58 240.636 708.916 240.264C709.252 239.88 709.42 239.268 709.42 238.428C709.42 237.588 709.252 236.982 708.916 236.61C708.58 236.226 708.142 236.034 707.602 236.034C707.062 236.034 706.624 236.226 706.288 236.61C705.952 236.982 705.784 237.588 705.784 238.428C705.784 239.268 705.946 239.88 706.27 240.264C706.606 240.636 707.05 240.822 707.602 240.822ZM714.56 243V236.34C714.56 235.932 714.548 235.518 714.524 235.098C714.5 234.678 714.464 234.264 714.416 233.856H717.512L717.692 235.44H717.494C717.758 234.888 718.148 234.456 718.664 234.144C719.18 233.82 719.786 233.658 720.482 233.658C721.154 233.658 721.724 233.82 722.192 234.144C722.672 234.456 723.02 234.954 723.236 235.638H722.93C723.23 235.014 723.662 234.528 724.226 234.18C724.802 233.832 725.444 233.658 726.152 233.658C727.196 233.658 727.976 233.976 728.492 234.612C729.008 235.236 729.266 236.214 729.266 237.546V243H726.044V237.654C726.044 237.09 725.96 236.694 725.792 236.466C725.624 236.226 725.354 236.106 724.982 236.106C724.514 236.106 724.148 236.274 723.884 236.61C723.632 236.946 723.506 237.408 723.506 237.996V243H720.302V237.654C720.302 237.09 720.212 236.694 720.032 236.466C719.864 236.226 719.6 236.106 719.24 236.106C718.772 236.106 718.406 236.274 718.142 236.61C717.89 236.946 717.764 237.408 717.764 237.996V243H714.56Z" fill="white"/>
<path d="M686.302 267.198C685.594 267.198 684.904 267.084 684.232 266.856C683.56 266.628 682.96 266.304 682.432 265.884L683.458 263.472C683.89 263.808 684.352 264.06 684.844 264.228C685.336 264.396 685.828 264.48 686.32 264.48C687.232 264.48 687.916 264.204 688.372 263.652C688.828 263.088 689.056 262.248 689.056 261.132V260.196H689.344C689.236 260.7 689.032 261.138 688.732 261.51C688.444 261.882 688.084 262.164 687.652 262.356C687.22 262.548 686.734 262.644 686.194 262.644C685.51 262.644 684.886 262.47 684.322 262.122C683.758 261.762 683.314 261.27 682.99 260.646C682.666 260.01 682.504 259.302 682.504 258.522C682.504 257.658 682.69 256.896 683.062 256.236C683.434 255.576 683.95 255.06 684.61 254.688C685.282 254.304 686.044 254.112 686.896 254.112C688.576 254.112 689.872 254.67 690.784 255.786C691.696 256.902 692.152 258.486 692.152 260.538C692.152 261.93 691.918 263.124 691.45 264.12C690.994 265.116 690.322 265.878 689.434 266.406C688.558 266.934 687.514 267.198 686.302 267.198ZM687.076 260.124C687.4 260.124 687.676 260.052 687.904 259.908C688.144 259.764 688.33 259.56 688.462 259.296C688.594 259.032 688.66 258.726 688.66 258.378C688.66 258.03 688.594 257.724 688.462 257.46C688.33 257.196 688.144 256.992 687.904 256.848C687.676 256.704 687.4 256.632 687.076 256.632C686.764 256.632 686.488 256.704 686.248 256.848C686.02 256.992 685.84 257.196 685.708 257.46C685.576 257.724 685.51 258.03 685.51 258.378C685.51 258.726 685.576 259.032 685.708 259.296C685.84 259.56 686.02 259.764 686.248 259.908C686.488 260.052 686.764 260.124 687.076 260.124ZM699.111 267H696.447L703.863 254.31H706.527L699.111 267ZM696.717 261.87C695.637 261.87 694.797 261.516 694.197 260.808C693.597 260.088 693.297 259.14 693.297 257.964C693.297 256.776 693.597 255.84 694.197 255.156C694.809 254.46 695.649 254.112 696.717 254.112C697.785 254.112 698.619 254.466 699.219 255.174C699.819 255.882 700.119 256.812 700.119 257.964C700.119 259.14 699.819 260.088 699.219 260.808C698.619 261.516 697.785 261.87 696.717 261.87ZM696.717 259.926C696.993 259.926 697.203 259.782 697.347 259.494C697.503 259.194 697.581 258.684 697.581 257.964C697.581 257.244 697.503 256.746 697.347 256.47C697.191 256.194 696.981 256.056 696.717 256.056C696.429 256.056 696.213 256.188 696.069 256.452C695.925 256.716 695.853 257.22 695.853 257.964C695.853 258.708 695.925 259.224 696.069 259.512C696.213 259.788 696.429 259.926 696.717 259.926ZM706.257 267.198C705.189 267.198 704.355 266.844 703.755 266.136C703.155 265.416 702.855 264.468 702.855 263.292C702.855 262.104 703.155 261.168 703.755 260.484C704.367 259.788 705.201 259.44 706.257 259.44C707.337 259.44 708.171 259.794 708.759 260.502C709.359 261.21 709.659 262.14 709.659 263.292C709.659 264.468 709.359 265.416 708.759 266.136C708.171 266.844 707.337 267.198 706.257 267.198ZM706.257 265.254C706.545 265.254 706.761 265.11 706.905 264.822C707.049 264.522 707.121 264.012 707.121 263.292C707.121 262.572 707.043 262.074 706.887 261.798C706.743 261.522 706.533 261.384 706.257 261.384C705.981 261.384 705.765 261.522 705.609 261.798C705.465 262.062 705.393 262.56 705.393 263.292C705.393 264.036 705.465 264.552 705.609 264.84C705.765 265.116 705.981 265.254 706.257 265.254Z" fill="white"/>
<path d="M600.724 89V76.31H603.604L607.762 85.616H607.168L611.308 76.31H614.206V89H611.2V81.224H611.974L608.374 89H606.502L602.884 81.224H603.712V89H600.724ZM619.998 89.198C619.206 89.198 618.51 89.012 617.91 88.64C617.31 88.256 616.836 87.704 616.488 86.984C616.152 86.264 615.984 85.412 615.984 84.428C615.984 83.432 616.152 82.58 616.488 81.872C616.836 81.152 617.31 80.606 617.91 80.234C618.51 79.85 619.206 79.658 619.998 79.658C620.706 79.658 621.342 79.826 621.906 80.162C622.482 80.498 622.86 80.936 623.04 81.476H622.86L623.058 79.856H626.136C626.1 80.264 626.064 80.678 626.028 81.098C626.004 81.518 625.992 81.932 625.992 82.34V89H622.824L622.788 87.452H623.004C622.824 87.98 622.446 88.406 621.87 88.73C621.306 89.042 620.682 89.198 619.998 89.198ZM621.024 86.822C621.564 86.822 622.002 86.636 622.338 86.264C622.674 85.88 622.842 85.268 622.842 84.428C622.842 83.588 622.674 82.982 622.338 82.61C622.002 82.226 621.564 82.034 621.024 82.034C620.484 82.034 620.046 82.226 619.71 82.61C619.374 82.982 619.206 83.588 619.206 84.428C619.206 85.268 619.368 85.88 619.692 86.264C620.028 86.636 620.472 86.822 621.024 86.822ZM627.982 89V82.358C627.982 81.938 627.97 81.518 627.946 81.098C627.922 80.678 627.886 80.264 627.838 79.856H630.934L631.276 82.664H630.79C630.91 81.98 631.102 81.416 631.366 80.972C631.63 80.528 631.96 80.198 632.356 79.982C632.752 79.766 633.22 79.658 633.76 79.658C634.012 79.658 634.198 79.67 634.318 79.694C634.45 79.706 634.588 79.742 634.732 79.802V82.61C634.432 82.478 634.192 82.394 634.012 82.358C633.832 82.322 633.598 82.304 633.31 82.304C632.818 82.304 632.416 82.394 632.104 82.574C631.792 82.742 631.564 83.006 631.42 83.366C631.288 83.726 631.222 84.188 631.222 84.752V89H627.982ZM635.699 89V75.752H638.903V83.546H638.939L641.999 79.856H645.779L641.639 84.752V83.654L645.941 89H642.071L638.939 85.166H638.903V89H635.699ZM651.123 89.198C649.467 89.198 648.177 88.772 647.253 87.92C646.341 87.068 645.885 85.898 645.885 84.41C645.885 83.486 646.077 82.664 646.461 81.944C646.845 81.224 647.385 80.666 648.081 80.27C648.777 79.862 649.593 79.658 650.529 79.658C651.453 79.658 652.221 79.862 652.833 80.27C653.457 80.666 653.925 81.218 654.237 81.926C654.549 82.622 654.705 83.432 654.705 84.356V85.04H648.567V83.528H652.347L652.041 83.78C652.041 83.096 651.909 82.592 651.645 82.268C651.393 81.932 651.033 81.764 650.565 81.764C650.025 81.764 649.611 81.968 649.323 82.376C649.047 82.772 648.909 83.372 648.909 84.176V84.5C648.909 85.304 649.107 85.892 649.503 86.264C649.899 86.636 650.469 86.822 651.213 86.822C651.693 86.822 652.143 86.768 652.563 86.66C652.995 86.552 653.403 86.378 653.787 86.138L654.615 88.226C654.159 88.538 653.631 88.778 653.031 88.946C652.431 89.114 651.795 89.198 651.123 89.198ZM660.84 89.198C659.544 89.198 658.566 88.892 657.906 88.28C657.258 87.656 656.934 86.714 656.934 85.454V82.214H655.224V79.856H656.934V77.696L660.138 76.94V79.856H662.37V82.214H660.138V85.328C660.138 85.856 660.258 86.21 660.498 86.39C660.738 86.558 661.026 86.642 661.362 86.642C661.566 86.642 661.74 86.63 661.884 86.606C662.04 86.57 662.202 86.522 662.37 86.462V88.928C662.106 89.036 661.842 89.108 661.578 89.144C661.326 89.18 661.08 89.198 660.84 89.198ZM663.613 89V79.856H666.817V89H663.613ZM663.541 78.56V75.68H666.907V78.56H663.541ZM668.799 89V82.34C668.799 81.932 668.787 81.518 668.763 81.098C668.739 80.678 668.703 80.264 668.655 79.856H671.751L671.931 81.44H671.733C672.033 80.864 672.459 80.426 673.011 80.126C673.563 79.814 674.187 79.658 674.883 79.658C675.951 79.658 676.749 79.976 677.277 80.612C677.817 81.236 678.087 82.214 678.087 83.546V89H674.883V83.69C674.883 83.102 674.781 82.694 674.577 82.466C674.373 82.226 674.079 82.106 673.695 82.106C673.191 82.106 672.783 82.274 672.471 82.61C672.159 82.934 672.003 83.366 672.003 83.906V89H668.799ZM684.495 93.032C683.583 93.032 682.779 92.948 682.083 92.78C681.399 92.624 680.781 92.378 680.229 92.042L680.787 89.774C681.111 89.966 681.465 90.128 681.849 90.26C682.233 90.392 682.629 90.488 683.037 90.548C683.457 90.62 683.853 90.656 684.225 90.656C684.993 90.656 685.563 90.476 685.935 90.116C686.307 89.768 686.493 89.27 686.493 88.622V87.02H686.673C686.481 87.548 686.103 87.974 685.539 88.298C684.975 88.61 684.351 88.766 683.667 88.766C682.851 88.766 682.137 88.586 681.525 88.226C680.925 87.854 680.451 87.326 680.103 86.642C679.767 85.958 679.599 85.148 679.599 84.212C679.599 83.276 679.767 82.466 680.103 81.782C680.451 81.098 680.925 80.576 681.525 80.216C682.137 79.844 682.851 79.658 683.667 79.658C684.375 79.658 684.999 79.814 685.539 80.126C686.079 80.438 686.445 80.852 686.637 81.368L686.493 81.332L686.691 79.856H689.769C689.721 80.264 689.685 80.678 689.661 81.098C689.637 81.518 689.625 81.932 689.625 82.34V88.262C689.625 89.798 689.187 90.974 688.311 91.79C687.435 92.618 686.163 93.032 684.495 93.032ZM684.657 86.39C685.209 86.39 685.647 86.204 685.971 85.832C686.295 85.46 686.457 84.92 686.457 84.212C686.457 83.492 686.295 82.952 685.971 82.592C685.647 82.22 685.209 82.034 684.657 82.034C684.093 82.034 683.649 82.22 683.325 82.592C683.001 82.952 682.839 83.492 682.839 84.212C682.839 84.92 683.001 85.46 683.325 85.832C683.649 86.204 684.093 86.39 684.657 86.39Z" fill="white"/>
<path d="M601.138 113V110.3H603.982V103.064H605.494L601.444 105.368V102.308L604.936 100.31H607.294V110.3H609.94V113H601.138ZM615.693 113.198C614.133 113.198 612.933 112.628 612.093 111.488C611.265 110.336 610.851 108.71 610.851 106.61C610.851 104.486 611.265 102.872 612.093 101.768C612.933 100.664 614.133 100.112 615.693 100.112C617.265 100.112 618.465 100.664 619.293 101.768C620.121 102.872 620.535 104.48 620.535 106.592C620.535 108.704 620.115 110.336 619.275 111.488C618.447 112.628 617.253 113.198 615.693 113.198ZM615.693 110.552C616.269 110.552 616.695 110.24 616.971 109.616C617.259 108.992 617.403 107.99 617.403 106.61C617.403 105.218 617.259 104.228 616.971 103.64C616.695 103.04 616.269 102.74 615.693 102.74C615.117 102.74 614.685 103.04 614.397 103.64C614.121 104.228 613.983 105.212 613.983 106.592C613.983 107.984 614.121 108.992 614.397 109.616C614.685 110.24 615.117 110.552 615.693 110.552ZM627.404 113H624.74L632.156 100.31H634.82L627.404 113ZM625.01 107.87C623.93 107.87 623.09 107.516 622.49 106.808C621.89 106.088 621.59 105.14 621.59 103.964C621.59 102.776 621.89 101.84 622.49 101.156C623.102 100.46 623.942 100.112 625.01 100.112C626.078 100.112 626.912 100.466 627.512 101.174C628.112 101.882 628.412 102.812 628.412 103.964C628.412 105.14 628.112 106.088 627.512 106.808C626.912 107.516 626.078 107.87 625.01 107.87ZM625.01 105.926C625.286 105.926 625.496 105.782 625.64 105.494C625.796 105.194 625.874 104.684 625.874 103.964C625.874 103.244 625.796 102.746 625.64 102.47C625.484 102.194 625.274 102.056 625.01 102.056C624.722 102.056 624.506 102.188 624.362 102.452C624.218 102.716 624.146 103.22 624.146 103.964C624.146 104.708 624.218 105.224 624.362 105.512C624.506 105.788 624.722 105.926 625.01 105.926ZM634.55 113.198C633.482 113.198 632.648 112.844 632.048 112.136C631.448 111.416 631.148 110.468 631.148 109.292C631.148 108.104 631.448 107.168 632.048 106.484C632.66 105.788 633.494 105.44 634.55 105.44C635.63 105.44 636.464 105.794 637.052 106.502C637.652 107.21 637.952 108.14 637.952 109.292C637.952 110.468 637.652 111.416 637.052 112.136C636.464 112.844 635.63 113.198 634.55 113.198ZM634.55 111.254C634.838 111.254 635.054 111.11 635.198 110.822C635.342 110.522 635.414 110.012 635.414 109.292C635.414 108.572 635.336 108.074 635.18 107.798C635.036 107.522 634.826 107.384 634.55 107.384C634.274 107.384 634.058 107.522 633.902 107.798C633.758 108.062 633.686 108.56 633.686 109.292C633.686 110.036 633.758 110.552 633.902 110.84C634.058 111.116 634.274 111.254 634.55 111.254Z" fill="white"/>
<path d="M495.67 19V6.31H499V16.246H504.436V19H495.67ZM505.896 19V9.856H509.1V19H505.896ZM505.824 8.56V5.68H509.19V8.56H505.824ZM517.472 22.888V17.452H517.688C517.508 17.98 517.13 18.406 516.554 18.73C515.99 19.042 515.366 19.198 514.682 19.198C513.89 19.198 513.194 19.012 512.594 18.64C511.994 18.256 511.52 17.704 511.172 16.984C510.836 16.264 510.668 15.412 510.668 14.428C510.668 13.432 510.836 12.58 511.172 11.872C511.52 11.152 511.994 10.606 512.594 10.234C513.194 9.85 513.89 9.658 514.682 9.658C515.39 9.658 516.026 9.826 516.59 10.162C517.166 10.498 517.544 10.936 517.724 11.476H517.544L517.742 9.856H520.82C520.784 10.264 520.748 10.678 520.712 11.098C520.688 11.518 520.676 11.932 520.676 12.34V22.888H517.472ZM515.708 16.822C516.248 16.822 516.686 16.636 517.022 16.264C517.358 15.88 517.526 15.268 517.526 14.428C517.526 13.588 517.358 12.982 517.022 12.61C516.686 12.226 516.248 12.034 515.708 12.034C515.168 12.034 514.73 12.226 514.394 12.61C514.058 12.982 513.89 13.588 513.89 14.428C513.89 15.268 514.052 15.88 514.376 16.264C514.712 16.636 515.156 16.822 515.708 16.822ZM526.032 19.198C524.868 19.198 524.004 18.88 523.44 18.244C522.888 17.596 522.612 16.618 522.612 15.31V9.856H525.816V15.328C525.816 15.808 525.912 16.168 526.104 16.408C526.308 16.636 526.614 16.75 527.022 16.75C527.478 16.75 527.85 16.588 528.138 16.264C528.438 15.928 528.588 15.49 528.588 14.95V9.856H531.792V19H528.678V17.362H528.948C528.66 17.95 528.27 18.406 527.778 18.73C527.286 19.042 526.704 19.198 526.032 19.198ZM533.793 19V9.856H536.997V19H533.793ZM533.721 8.56V5.68H537.087V8.56H533.721ZM542.614 19.198C541.834 19.198 541.138 19.012 540.526 18.64C539.914 18.256 539.434 17.704 539.086 16.984C538.738 16.264 538.564 15.412 538.564 14.428C538.564 13.432 538.732 12.58 539.068 11.872C539.416 11.152 539.896 10.606 540.508 10.234C541.132 9.85 541.834 9.658 542.614 9.658C543.31 9.658 543.94 9.82 544.504 10.144C545.068 10.456 545.446 10.876 545.638 11.404H545.368V5.752H548.572V19H545.422V17.362H545.656C545.488 17.914 545.116 18.358 544.54 18.694C543.976 19.03 543.334 19.198 542.614 19.198ZM543.64 16.822C544.168 16.822 544.6 16.636 544.936 16.264C545.284 15.88 545.458 15.268 545.458 14.428C545.458 13.588 545.284 12.982 544.936 12.61C544.6 12.226 544.168 12.034 543.64 12.034C543.1 12.034 542.656 12.226 542.308 12.61C541.972 12.982 541.804 13.588 541.804 14.428C541.804 15.268 541.972 15.88 542.308 16.264C542.656 16.636 543.1 16.822 543.64 16.822ZM550.562 19V9.856H553.766V19H550.562ZM550.49 8.56V5.68H553.856V8.56H550.49ZM560.428 19.198C559.132 19.198 558.154 18.892 557.494 18.28C556.846 17.656 556.522 16.714 556.522 15.454V12.214H554.812V9.856H556.522V7.696L559.726 6.94V9.856H561.958V12.214H559.726V15.328C559.726 15.856 559.846 16.21 560.086 16.39C560.326 16.558 560.614 16.642 560.95 16.642C561.154 16.642 561.328 16.63 561.472 16.606C561.628 16.57 561.79 16.522 561.958 16.462V18.928C561.694 19.036 561.43 19.108 561.166 19.144C560.914 19.18 560.668 19.198 560.428 19.198ZM563.395 23.086L562.639 20.602C563.215 20.494 563.695 20.374 564.079 20.242C564.475 20.122 564.799 19.954 565.051 19.738C565.303 19.522 565.501 19.24 565.645 18.892L566.095 17.848L566.023 19.054L562.027 9.856H565.411L567.751 15.922H567.157L569.569 9.856H572.737L568.633 19.198C568.309 19.93 567.961 20.53 567.589 20.998C567.229 21.466 566.833 21.838 566.401 22.114C565.981 22.39 565.519 22.594 565.015 22.726C564.523 22.87 563.983 22.99 563.395 23.086Z" fill="white"/>
<path d="M499.81 43.198C499.246 43.198 498.682 43.138 498.118 43.018C497.554 42.91 497.032 42.754 496.552 42.55C496.072 42.346 495.664 42.106 495.328 41.83L496.336 39.382C496.864 39.742 497.416 40.018 497.992 40.21C498.568 40.39 499.15 40.48 499.738 40.48C500.35 40.48 500.824 40.348 501.16 40.084C501.508 39.82 501.682 39.448 501.682 38.968C501.682 38.488 501.52 38.11 501.196 37.834C500.872 37.558 500.434 37.42 499.882 37.42C499.474 37.42 499.096 37.492 498.748 37.636C498.4 37.768 498.07 37.972 497.758 38.248H495.706V30.31H504.022V32.992H498.802V35.818H498.064C498.352 35.482 498.73 35.23 499.198 35.062C499.666 34.882 500.182 34.792 500.746 34.792C501.562 34.792 502.276 34.966 502.888 35.314C503.5 35.65 503.974 36.124 504.31 36.736C504.658 37.348 504.832 38.062 504.832 38.878C504.832 39.742 504.628 40.504 504.22 41.164C503.812 41.812 503.23 42.316 502.474 42.676C501.73 43.024 500.842 43.198 499.81 43.198ZM511.611 43H508.947L516.363 30.31H519.027L511.611 43ZM509.217 37.87C508.137 37.87 507.297 37.516 506.697 36.808C506.097 36.088 505.797 35.14 505.797 33.964C505.797 32.776 506.097 31.84 506.697 31.156C507.309 30.46 508.149 30.112 509.217 30.112C510.285 30.112 511.119 30.466 511.719 31.174C512.319 31.882 512.619 32.812 512.619 33.964C512.619 35.14 512.319 36.088 511.719 36.808C511.119 37.516 510.285 37.87 509.217 37.87ZM509.217 35.926C509.493 35.926 509.703 35.782 509.847 35.494C510.003 35.194 510.081 34.684 510.081 33.964C510.081 33.244 510.003 32.746 509.847 32.47C509.691 32.194 509.481 32.056 509.217 32.056C508.929 32.056 508.713 32.188 508.569 32.452C508.425 32.716 508.353 33.22 508.353 33.964C508.353 34.708 508.425 35.224 508.569 35.512C508.713 35.788 508.929 35.926 509.217 35.926ZM518.757 43.198C517.689 43.198 516.855 42.844 516.255 42.136C515.655 41.416 515.355 40.468 515.355 39.292C515.355 38.104 515.655 37.168 516.255 36.484C516.867 35.788 517.701 35.44 518.757 35.44C519.837 35.44 520.671 35.794 521.259 36.502C521.859 37.21 522.159 38.14 522.159 39.292C522.159 40.468 521.859 41.416 521.259 42.136C520.671 42.844 519.837 43.198 518.757 43.198ZM518.757 41.254C519.045 41.254 519.261 41.11 519.405 40.822C519.549 40.522 519.621 40.012 519.621 39.292C519.621 38.572 519.543 38.074 519.387 37.798C519.243 37.522 519.033 37.384 518.757 37.384C518.481 37.384 518.265 37.522 518.109 37.798C517.965 38.062 517.893 38.56 517.893 39.292C517.893 40.036 517.965 40.552 518.109 40.84C518.265 41.116 518.481 41.254 518.757 41.254Z" fill="white"/>
<path d="M205.104 15L211.044 2.31H213.744L219.72 15H216.39L214.86 11.508L216.138 12.426H208.686L209.946 11.508L208.434 15H205.104ZM212.376 5.73L210.27 10.752L209.766 9.906H215.04L214.59 10.752L212.466 5.73H212.376ZM223.872 15.198C223.092 15.198 222.396 15.012 221.784 14.64C221.172 14.256 220.692 13.704 220.344 12.984C219.996 12.264 219.822 11.412 219.822 10.428C219.822 9.432 219.99 8.58 220.326 7.872C220.674 7.152 221.154 6.606 221.766 6.234C222.39 5.85 223.092 5.658 223.872 5.658C224.568 5.658 225.198 5.82 225.762 6.144C226.326 6.456 226.704 6.876 226.896 7.404H226.626V1.752H229.83V15H226.68V13.362H226.914C226.746 13.914 226.374 14.358 225.798 14.694C225.234 15.03 224.592 15.198 223.872 15.198ZM224.898 12.822C225.426 12.822 225.858 12.636 226.194 12.264C226.542 11.88 226.716 11.268 226.716 10.428C226.716 9.588 226.542 8.982 226.194 8.61C225.858 8.226 225.426 8.034 224.898 8.034C224.358 8.034 223.914 8.226 223.566 8.61C223.23 8.982 223.062 9.588 223.062 10.428C223.062 11.268 223.23 11.88 223.566 12.264C223.914 12.636 224.358 12.822 224.898 12.822ZM234.484 15L230.506 5.856H233.872L236.23 11.94H235.582L238.048 5.856H241.198L237.184 15H234.484ZM241.875 15V5.856H245.079V15H241.875ZM241.803 4.56V1.68H245.169V4.56H241.803ZM250.57 15.198C249.718 15.198 248.944 15.114 248.248 14.946C247.564 14.766 246.982 14.526 246.502 14.226L247.276 12.138C247.744 12.402 248.266 12.618 248.842 12.786C249.43 12.954 250.012 13.038 250.588 13.038C251.044 13.038 251.374 12.972 251.578 12.84C251.794 12.696 251.902 12.51 251.902 12.282C251.902 12.102 251.836 11.958 251.704 11.85C251.572 11.742 251.374 11.664 251.11 11.616L249.166 11.274C248.398 11.13 247.798 10.848 247.366 10.428C246.946 9.996 246.736 9.438 246.736 8.754C246.736 8.13 246.904 7.59 247.24 7.134C247.576 6.666 248.056 6.306 248.68 6.054C249.304 5.79 250.042 5.658 250.894 5.658C251.59 5.658 252.25 5.736 252.874 5.892C253.51 6.048 254.062 6.294 254.53 6.63L253.702 8.664C253.33 8.412 252.892 8.208 252.388 8.052C251.896 7.884 251.434 7.8 251.002 7.8C250.486 7.8 250.12 7.878 249.904 8.034C249.688 8.178 249.58 8.358 249.58 8.574C249.58 8.742 249.64 8.886 249.76 9.006C249.88 9.114 250.072 9.192 250.336 9.24L252.28 9.582C253.072 9.714 253.678 9.99 254.098 10.41C254.53 10.818 254.746 11.376 254.746 12.084C254.746 12.744 254.566 13.308 254.206 13.776C253.858 14.232 253.372 14.586 252.748 14.838C252.124 15.078 251.398 15.198 250.57 15.198ZM260.738 15.198C259.718 15.198 258.836 15.006 258.092 14.622C257.348 14.238 256.772 13.692 256.364 12.984C255.956 12.264 255.752 11.412 255.752 10.428C255.752 9.432 255.956 8.58 256.364 7.872C256.772 7.164 257.348 6.618 258.092 6.234C258.836 5.85 259.718 5.658 260.738 5.658C261.746 5.658 262.622 5.85 263.366 6.234C264.11 6.618 264.686 7.17 265.094 7.89C265.502 8.598 265.706 9.444 265.706 10.428C265.706 11.4 265.502 12.246 265.094 12.966C264.686 13.686 264.11 14.238 263.366 14.622C262.622 15.006 261.746 15.198 260.738 15.198ZM260.738 12.822C261.266 12.822 261.686 12.636 261.998 12.264C262.31 11.88 262.466 11.268 262.466 10.428C262.466 9.588 262.31 8.982 261.998 8.61C261.686 8.226 261.266 8.034 260.738 8.034C260.198 8.034 259.772 8.226 259.46 8.61C259.148 8.982 258.992 9.588 258.992 10.428C258.992 11.268 259.148 11.88 259.46 12.264C259.772 12.636 260.198 12.822 260.738 12.822ZM267.275 15V8.358C267.275 7.938 267.263 7.518 267.239 7.098C267.215 6.678 267.179 6.264 267.131 5.856H270.227L270.569 8.664H270.083C270.203 7.98 270.395 7.416 270.659 6.972C270.923 6.528 271.253 6.198 271.649 5.982C272.045 5.766 272.513 5.658 273.053 5.658C273.305 5.658 273.491 5.67 273.611 5.694C273.743 5.706 273.881 5.742 274.025 5.802V8.61C273.725 8.478 273.485 8.394 273.305 8.358C273.125 8.322 272.891 8.304 272.603 8.304C272.111 8.304 271.709 8.394 271.397 8.574C271.085 8.742 270.857 9.006 270.713 9.366C270.581 9.726 270.515 10.188 270.515 10.752V15H267.275ZM278.414 15.198C277.562 15.198 276.788 15.114 276.092 14.946C275.408 14.766 274.826 14.526 274.346 14.226L275.12 12.138C275.588 12.402 276.11 12.618 276.686 12.786C277.274 12.954 277.856 13.038 278.432 13.038C278.888 13.038 279.218 12.972 279.422 12.84C279.638 12.696 279.746 12.51 279.746 12.282C279.746 12.102 279.68 11.958 279.548 11.85C279.416 11.742 279.218 11.664 278.954 11.616L277.01 11.274C276.242 11.13 275.642 10.848 275.21 10.428C274.79 9.996 274.58 9.438 274.58 8.754C274.58 8.13 274.748 7.59 275.084 7.134C275.42 6.666 275.9 6.306 276.524 6.054C277.148 5.79 277.886 5.658 278.738 5.658C279.434 5.658 280.094 5.736 280.718 5.892C281.354 6.048 281.906 6.294 282.374 6.63L281.546 8.664C281.174 8.412 280.736 8.208 280.232 8.052C279.74 7.884 279.278 7.8 278.846 7.8C278.33 7.8 277.964 7.878 277.748 8.034C277.532 8.178 277.424 8.358 277.424 8.574C277.424 8.742 277.484 8.886 277.604 9.006C277.724 9.114 277.916 9.192 278.18 9.24L280.124 9.582C280.916 9.714 281.522 9.99 281.942 10.41C282.374 10.818 282.59 11.376 282.59 12.084C282.59 12.744 282.41 13.308 282.05 13.776C281.702 14.232 281.216 14.586 280.592 14.838C279.968 15.078 279.242 15.198 278.414 15.198Z" fill="white"/>
<path d="M260.65 39.198C260.086 39.198 259.522 39.138 258.958 39.018C258.394 38.91 257.872 38.754 257.392 38.55C256.912 38.346 256.504 38.106 256.168 37.83L257.176 35.382C257.704 35.742 258.256 36.018 258.832 36.21C259.408 36.39 259.99 36.48 260.578 36.48C261.19 36.48 261.664 36.348 262 36.084C262.348 35.82 262.522 35.448 262.522 34.968C262.522 34.488 262.36 34.11 262.036 33.834C261.712 33.558 261.274 33.42 260.722 33.42C260.314 33.42 259.936 33.492 259.588 33.636C259.24 33.768 258.91 33.972 258.598 34.248H256.546V26.31H264.862V28.992H259.642V31.818H258.904C259.192 31.482 259.57 31.23 260.038 31.062C260.506 30.882 261.022 30.792 261.586 30.792C262.402 30.792 263.116 30.966 263.728 31.314C264.34 31.65 264.814 32.124 265.15 32.736C265.498 33.348 265.672 34.062 265.672 34.878C265.672 35.742 265.468 36.504 265.06 37.164C264.652 37.812 264.07 38.316 263.314 38.676C262.57 39.024 261.682 39.198 260.65 39.198ZM272.451 39H269.787L277.203 26.31H279.867L272.451 39ZM270.057 33.87C268.977 33.87 268.137 33.516 267.537 32.808C266.937 32.088 266.637 31.14 266.637 29.964C266.637 28.776 266.937 27.84 267.537 27.156C268.149 26.46 268.989 26.112 270.057 26.112C271.125 26.112 271.959 26.466 272.559 27.174C273.159 27.882 273.459 28.812 273.459 29.964C273.459 31.14 273.159 32.088 272.559 32.808C271.959 33.516 271.125 33.87 270.057 33.87ZM270.057 31.926C270.333 31.926 270.543 31.782 270.687 31.494C270.843 31.194 270.921 30.684 270.921 29.964C270.921 29.244 270.843 28.746 270.687 28.47C270.531 28.194 270.321 28.056 270.057 28.056C269.769 28.056 269.553 28.188 269.409 28.452C269.265 28.716 269.193 29.22 269.193 29.964C269.193 30.708 269.265 31.224 269.409 31.512C269.553 31.788 269.769 31.926 270.057 31.926ZM279.597 39.198C278.529 39.198 277.695 38.844 277.095 38.136C276.495 37.416 276.195 36.468 276.195 35.292C276.195 34.104 276.495 33.168 277.095 32.484C277.707 31.788 278.541 31.44 279.597 31.44C280.677 31.44 281.511 31.794 282.099 32.502C282.699 33.21 282.999 34.14 282.999 35.292C282.999 36.468 282.699 37.416 282.099 38.136C281.511 38.844 280.677 39.198 279.597 39.198ZM279.597 37.254C279.885 37.254 280.101 37.11 280.245 36.822C280.389 36.522 280.461 36.012 280.461 35.292C280.461 34.572 280.383 34.074 280.227 33.798C280.083 33.522 279.873 33.384 279.597 33.384C279.321 33.384 279.105 33.522 278.949 33.798C278.805 34.062 278.733 34.56 278.733 35.292C278.733 36.036 278.805 36.552 278.949 36.84C279.105 37.116 279.321 37.254 279.597 37.254Z" fill="white"/>
<path d="M4.568 196V185.992H0.716V183.31H11.75V185.992H7.898V196H4.568ZM16.1167 196.198C15.0967 196.198 14.2147 196.006 13.4707 195.622C12.7267 195.238 12.1507 194.692 11.7427 193.984C11.3347 193.264 11.1307 192.412 11.1307 191.428C11.1307 190.432 11.3347 189.58 11.7427 188.872C12.1507 188.164 12.7267 187.618 13.4707 187.234C14.2147 186.85 15.0967 186.658 16.1167 186.658C17.1247 186.658 18.0007 186.85 18.7447 187.234C19.4887 187.618 20.0647 188.17 20.4727 188.89C20.8807 189.598 21.0847 190.444 21.0847 191.428C21.0847 192.4 20.8807 193.246 20.4727 193.966C20.0647 194.686 19.4887 195.238 18.7447 195.622C18.0007 196.006 17.1247 196.198 16.1167 196.198ZM16.1167 193.822C16.6447 193.822 17.0647 193.636 17.3767 193.264C17.6887 192.88 17.8447 192.268 17.8447 191.428C17.8447 190.588 17.6887 189.982 17.3767 189.61C17.0647 189.226 16.6447 189.034 16.1167 189.034C15.5767 189.034 15.1507 189.226 14.8387 189.61C14.5267 189.982 14.3707 190.588 14.3707 191.428C14.3707 192.268 14.5267 192.88 14.8387 193.264C15.1507 193.636 15.5767 193.822 16.1167 193.822ZM22.6541 196V182.752H25.8581V190.546H25.8941L28.9541 186.856H32.7341L28.5941 191.752V190.654L32.8961 196H29.0261L25.8941 192.166H25.8581V196H22.6541ZM38.0777 196.198C36.4217 196.198 35.1317 195.772 34.2077 194.92C33.2957 194.068 32.8397 192.898 32.8397 191.41C32.8397 190.486 33.0317 189.664 33.4157 188.944C33.7997 188.224 34.3397 187.666 35.0357 187.27C35.7317 186.862 36.5477 186.658 37.4837 186.658C38.4077 186.658 39.1757 186.862 39.7877 187.27C40.4117 187.666 40.8797 188.218 41.1917 188.926C41.5037 189.622 41.6597 190.432 41.6597 191.356V192.04H35.5217V190.528H39.3017L38.9957 190.78C38.9957 190.096 38.8637 189.592 38.5997 189.268C38.3477 188.932 37.9877 188.764 37.5197 188.764C36.9797 188.764 36.5657 188.968 36.2777 189.376C36.0017 189.772 35.8637 190.372 35.8637 191.176V191.5C35.8637 192.304 36.0617 192.892 36.4577 193.264C36.8537 193.636 37.4237 193.822 38.1677 193.822C38.6477 193.822 39.0977 193.768 39.5177 193.66C39.9497 193.552 40.3577 193.378 40.7417 193.138L41.5697 195.226C41.1137 195.538 40.5857 195.778 39.9857 195.946C39.3857 196.114 38.7497 196.198 38.0777 196.198ZM43.1853 196V189.34C43.1853 188.932 43.1733 188.518 43.1493 188.098C43.1253 187.678 43.0893 187.264 43.0413 186.856H46.1373L46.3173 188.44H46.1193C46.4193 187.864 46.8453 187.426 47.3973 187.126C47.9493 186.814 48.5733 186.658 49.2693 186.658C50.3373 186.658 51.1353 186.976 51.6633 187.612C52.2033 188.236 52.4733 189.214 52.4733 190.546V196H49.2693V190.69C49.2693 190.102 49.1673 189.694 48.9633 189.466C48.7593 189.226 48.4653 189.106 48.0813 189.106C47.5773 189.106 47.1693 189.274 46.8573 189.61C46.5453 189.934 46.3893 190.366 46.3893 190.906V196H43.1853ZM63.1133 196.198C62.2613 196.198 61.4873 196.114 60.7913 195.946C60.1073 195.766 59.5253 195.526 59.0453 195.226L59.8193 193.138C60.2873 193.402 60.8093 193.618 61.3853 193.786C61.9733 193.954 62.5553 194.038 63.1313 194.038C63.5873 194.038 63.9173 193.972 64.1213 193.84C64.3373 193.696 64.4453 193.51 64.4453 193.282C64.4453 193.102 64.3793 192.958 64.2473 192.85C64.1153 192.742 63.9173 192.664 63.6533 192.616L61.7093 192.274C60.9413 192.13 60.3413 191.848 59.9093 191.428C59.4893 190.996 59.2793 190.438 59.2793 189.754C59.2793 189.13 59.4473 188.59 59.7833 188.134C60.1193 187.666 60.5993 187.306 61.2233 187.054C61.8473 186.79 62.5853 186.658 63.4373 186.658C64.1333 186.658 64.7933 186.736 65.4173 186.892C66.0533 187.048 66.6053 187.294 67.0733 187.63L66.2453 189.664C65.8733 189.412 65.4353 189.208 64.9313 189.052C64.4393 188.884 63.9773 188.8 63.5453 188.8C63.0293 188.8 62.6633 188.878 62.4473 189.034C62.2313 189.178 62.1233 189.358 62.1233 189.574C62.1233 189.742 62.1833 189.886 62.3033 190.006C62.4233 190.114 62.6153 190.192 62.8793 190.24L64.8233 190.582C65.6153 190.714 66.2213 190.99 66.6413 191.41C67.0733 191.818 67.2893 192.376 67.2893 193.084C67.2893 193.744 67.1093 194.308 66.7493 194.776C66.4013 195.232 65.9153 195.586 65.2913 195.838C64.6673 196.078 63.9413 196.198 63.1133 196.198ZM72.3088 196.198C71.5168 196.198 70.8208 196.012 70.2208 195.64C69.6208 195.256 69.1468 194.704 68.7988 193.984C68.4628 193.264 68.2948 192.412 68.2948 191.428C68.2948 190.432 68.4628 189.58 68.7988 188.872C69.1468 188.152 69.6208 187.606 70.2208 187.234C70.8208 186.85 71.5168 186.658 72.3088 186.658C73.0168 186.658 73.6528 186.826 74.2168 187.162C74.7928 187.498 75.1708 187.936 75.3508 188.476H75.1708L75.3688 186.856H78.4468C78.4108 187.264 78.3748 187.678 78.3388 188.098C78.3148 188.518 78.3027 188.932 78.3027 189.34V196H75.1348L75.0988 194.452H75.3148C75.1348 194.98 74.7568 195.406 74.1808 195.73C73.6168 196.042 72.9928 196.198 72.3088 196.198ZM73.3348 193.822C73.8748 193.822 74.3128 193.636 74.6488 193.264C74.9848 192.88 75.1528 192.268 75.1528 191.428C75.1528 190.588 74.9848 189.982 74.6488 189.61C74.3128 189.226 73.8748 189.034 73.3348 189.034C72.7948 189.034 72.3568 189.226 72.0208 189.61C71.6848 189.982 71.5168 190.588 71.5168 191.428C71.5168 192.268 71.6788 192.88 72.0028 193.264C72.3388 193.636 72.7828 193.822 73.3348 193.822ZM80.2927 196V182.752H83.4967V196H80.2927ZM90.3023 196.198C88.6463 196.198 87.3563 195.772 86.4323 194.92C85.5203 194.068 85.0643 192.898 85.0643 191.41C85.0643 190.486 85.2563 189.664 85.6403 188.944C86.0243 188.224 86.5643 187.666 87.2603 187.27C87.9563 186.862 88.7723 186.658 89.7083 186.658C90.6323 186.658 91.4003 186.862 92.0123 187.27C92.6363 187.666 93.1043 188.218 93.4163 188.926C93.7283 189.622 93.8843 190.432 93.8843 191.356V192.04H87.7463V190.528H91.5263L91.2203 190.78C91.2203 190.096 91.0883 189.592 90.8243 189.268C90.5723 188.932 90.2123 188.764 89.7443 188.764C89.2043 188.764 88.7903 188.968 88.5023 189.376C88.2263 189.772 88.0883 190.372 88.0883 191.176V191.5C88.0883 192.304 88.2863 192.892 88.6823 193.264C89.0783 193.636 89.6483 193.822 90.3923 193.822C90.8723 193.822 91.3223 193.768 91.7423 193.66C92.1743 193.552 92.5823 193.378 92.9663 193.138L93.7943 195.226C93.3383 195.538 92.8103 195.778 92.2103 195.946C91.6103 196.114 90.9743 196.198 90.3023 196.198Z" fill="white"/>
<path d="M60.5869 220.198C59.6869 220.198 58.8169 220.078 57.9769 219.838C57.1489 219.586 56.4829 219.25 55.9789 218.83L56.9869 216.382C57.5149 216.754 58.0729 217.03 58.6609 217.21C59.2489 217.39 59.8549 217.48 60.4789 217.48C61.1269 217.48 61.6129 217.372 61.9369 217.156C62.2609 216.928 62.4229 216.592 62.4229 216.148C62.4229 215.728 62.2729 215.416 61.9729 215.212C61.6849 215.008 61.2529 214.906 60.6769 214.906H58.4449V212.314H60.3529C60.8689 212.314 61.2769 212.206 61.5769 211.99C61.8769 211.762 62.0269 211.444 62.0269 211.036C62.0269 210.64 61.8829 210.34 61.5949 210.136C61.3069 209.932 60.8869 209.83 60.3349 209.83C59.1829 209.83 58.1389 210.196 57.2029 210.928L56.1949 208.516C56.7349 208.072 57.4009 207.73 58.1929 207.49C58.9849 207.238 59.8069 207.112 60.6589 207.112C62.0749 207.112 63.1849 207.424 63.9889 208.048C64.7929 208.66 65.1949 209.512 65.1949 210.604C65.1949 211.336 64.9849 211.966 64.5649 212.494C64.1569 213.022 63.5929 213.37 62.8729 213.538V213.286C63.7129 213.418 64.3729 213.772 64.8529 214.348C65.3329 214.912 65.5729 215.62 65.5729 216.472C65.5729 217.624 65.1289 218.536 64.2409 219.208C63.3529 219.868 62.1349 220.198 60.5869 220.198ZM71.6498 220.198C71.0858 220.198 70.5218 220.138 69.9578 220.018C69.3938 219.91 68.8718 219.754 68.3918 219.55C67.9118 219.346 67.5038 219.106 67.1678 218.83L68.1758 216.382C68.7038 216.742 69.2558 217.018 69.8318 217.21C70.4078 217.39 70.9898 217.48 71.5778 217.48C72.1898 217.48 72.6638 217.348 72.9998 217.084C73.3478 216.82 73.5218 216.448 73.5218 215.968C73.5218 215.488 73.3598 215.11 73.0358 214.834C72.7118 214.558 72.2738 214.42 71.7218 214.42C71.3138 214.42 70.9358 214.492 70.5878 214.636C70.2398 214.768 69.9098 214.972 69.5978 215.248H67.5458V207.31H75.8618V209.992H70.6418V212.818H69.9038C70.1918 212.482 70.5698 212.23 71.0378 212.062C71.5058 211.882 72.0218 211.792 72.5858 211.792C73.4018 211.792 74.1158 211.966 74.7278 212.314C75.3398 212.65 75.8138 213.124 76.1498 213.736C76.4978 214.348 76.6718 215.062 76.6718 215.878C76.6718 216.742 76.4678 217.504 76.0598 218.164C75.6518 218.812 75.0698 219.316 74.3138 219.676C73.5698 220.024 72.6818 220.198 71.6498 220.198ZM83.4508 220H80.7868L88.2028 207.31H90.8668L83.4508 220ZM81.0568 214.87C79.9768 214.87 79.1368 214.516 78.5368 213.808C77.9368 213.088 77.6368 212.14 77.6368 210.964C77.6368 209.776 77.9368 208.84 78.5368 208.156C79.1488 207.46 79.9888 207.112 81.0568 207.112C82.1248 207.112 82.9588 207.466 83.5588 208.174C84.1588 208.882 84.4588 209.812 84.4588 210.964C84.4588 212.14 84.1588 213.088 83.5588 213.808C82.9588 214.516 82.1248 214.87 81.0568 214.87ZM81.0568 212.926C81.3328 212.926 81.5428 212.782 81.6868 212.494C81.8428 212.194 81.9208 211.684 81.9208 210.964C81.9208 210.244 81.8428 209.746 81.6868 209.47C81.5308 209.194 81.3208 209.056 81.0568 209.056C80.7688 209.056 80.5528 209.188 80.4088 209.452C80.2648 209.716 80.1928 210.22 80.1928 210.964C80.1928 211.708 80.2648 212.224 80.4088 212.512C80.5528 212.788 80.7688 212.926 81.0568 212.926ZM90.5968 220.198C89.5288 220.198 88.6948 219.844 88.0948 219.136C87.4948 218.416 87.1948 217.468 87.1948 216.292C87.1948 215.104 87.4948 214.168 88.0948 213.484C88.7068 212.788 89.5408 212.44 90.5968 212.44C91.6768 212.44 92.5108 212.794 93.0988 213.502C93.6988 214.21 93.9988 215.14 93.9988 216.292C93.9988 217.468 93.6988 218.416 93.0988 219.136C92.5108 219.844 91.6768 220.198 90.5968 220.198ZM90.5968 218.254C90.8848 218.254 91.1008 218.11 91.2448 217.822C91.3888 217.522 91.4608 217.012 91.4608 216.292C91.4608 215.572 91.3828 215.074 91.2268 214.798C91.0828 214.522 90.8728 214.384 90.5968 214.384C90.3208 214.384 90.1048 214.522 89.9488 214.798C89.8048 215.062 89.7328 215.56 89.7328 216.292C89.7328 217.036 89.8048 217.552 89.9488 217.84C90.1048 218.116 90.3208 218.254 90.5968 218.254Z" fill="white"/>
<path d="M597 243L632.373 247.551H672.71" stroke="#D8D8D8" stroke-width="4.13714" stroke-miterlimit="10" stroke-linecap="round" stroke-linejoin="round"/>
<path d="M522 125.304L554.683 92H589.642" stroke="#D8D8D8" stroke-width="4.13714" stroke-miterlimit="10" stroke-linecap="round" stroke-linejoin="round"/>
<path d="M425.841 79.3033L447.253 37.8441L480.659 27.5378" stroke="#D8D8D8" stroke-width="4.13714" stroke-miterlimit="10" stroke-linecap="round" stroke-linejoin="round"/>
<path d="M353.636 75.7657L332.224 34.3065L298.818 24.0002" stroke="#D8D8D8" stroke-width="4.13714" stroke-miterlimit="10" stroke-linecap="round" stroke-linejoin="round"/>
<path d="M161.265 226.236L126.72 201H105" stroke="#D8D8D8" stroke-width="4.13714" stroke-miterlimit="10" stroke-linecap="round" stroke-linejoin="round"/>
<path d="M433 518L454.099 567.853H493.195" stroke="#D8D8D8" stroke-width="4.13714" stroke-miterlimit="10" stroke-linecap="round" stroke-linejoin="round"/>
<circle cx="378" cy="304" r="230" fill="#607D8B"/>
<circle cx="378" cy="304" r="230" fill="#2196F3"/>
<path d="M460.425 89.2765C505.769 106.683 544.44 137.997 570.893 178.732L378 304L460.425 89.2765Z" fill="#ED7D31"/>
<path d="M390.037 74.3152C414.139 75.5783 437.892 80.6272 460.424 89.2765L378 304L390.037 74.3152Z" fill="#9C28B1"/>
<path d="M231.702 481.474C198.972 454.493 174.34 418.987 160.531 378.881C146.721 338.774 144.271 295.631 153.452 254.219C162.633 212.807 183.086 174.741 212.552 144.229C242.017 113.716 279.347 91.9464 320.413 81.326L378 304L231.702 481.474Z" fill="#72AC45"/>
<path d="M318.472 81.8371C341.784 75.5904 365.935 73.0521 390.037 74.3152L378 304L318.472 81.8371Z" fill="#607D8B"/>
<path d="M608 304C608 347.645 595.582 390.389 572.195 427.24C548.809 464.091 515.421 493.527 475.929 512.11C436.438 530.693 392.474 537.657 349.173 532.186C305.872 526.716 265.022 509.039 231.392 481.218L378 304H608Z" fill="#FFC000"/>
<path d="M493 304C493 240.501 441.499 189 378.001 189C314.502 189 263 240.501 263 304C263 367.498 314.502 419 378.001 419C441.499 419 493 367.498 493 304Z" fill="#0D042E"/>
</svg>
